<!-- Generated by IcoMoon.io -->
<svg version="1.1" xmlns="http://www.w3.org/2000/svg" width="32" height="32" viewBox="0 0 32 32">
<title>resp</title>
<path d="M30.713 23.227c-0.455-0.92-1.619-1.299-2.53-0.817l-5.951 3.15h-0.786c0.349-0.382 0.54-0.874 0.539-1.396-0.002-1.138-0.929-2.064-2.067-2.064h-4.471l-2.271-1.625c-0.518-0.371-1.129-0.567-1.767-0.567h-0.854c-0.186 0-0.337 0.151-0.337 0.337s0.151 0.337 0.337 0.337h0.854c0.496 0 0.971 0.152 1.374 0.441l2.359 1.688c0.057 0.041 0.126 0.063 0.196 0.063h4.579c0.766 0 1.391 0.624 1.392 1.39 0.001 0.76-0.632 1.395-1.392 1.395h-0.381c-0.867 0-1.713 0.354-2.322 0.97-0.131 0.159-0.13 0.318 0.003 0.477 0.133 0.131 0.346 0.13 0.477-0.003 0.483-0.489 1.154-0.77 1.842-0.77h2.778c0.055 0 0.109-0.013 0.158-0.039l6.025-3.189c0.582-0.308 1.32-0.065 1.61 0.52 0.282 0.57 0.065 1.254-0.492 1.559l-10.544 5.758c-0.639 0.349-1.39 0.385-2.060 0.099l-8.953-3.826c-0.039-0.017-0.080-0.026-0.122-0.027l-0.876-0.027 0-7.979c0-0.186-0.151-0.337-0.337-0.337h-5.724c-0.186 0-0.337 0.151-0.337 0.337v9.311c0 0.186 0.151 0.337 0.337 0.337h5.724c0.186 0 0.337-0.151 0.337-0.337v-0.657l0.791 0.024 8.895 3.801c0.849 0.363 1.839 0.315 2.648-0.127l10.544-5.758c0.877-0.479 1.217-1.555 0.774-2.45l-0 0zM6.386 28.056h-5.049v-8.636h5.049v8.636z"></path>
<path d="M3.862 26.969c-0.781 0-1.417-0.636-1.417-1.417s0.636-1.417 1.417-1.417 1.417 0.636 1.417 1.417c0 0.781-0.636 1.417-1.417 1.417zM3.862 24.81c-0.409 0-0.742 0.333-0.742 0.742s0.333 0.742 0.742 0.742c0.409 0 0.742-0.333 0.742-0.742s-0.333-0.742-0.742-0.742z"></path>
<path d="M9.116 20.246c0 0.242-0.196 0.439-0.438 0.439s-0.438-0.196-0.438-0.439c0-0.242 0.196-0.439 0.438-0.439s0.438 0.196 0.438 0.439z"></path>
<path d="M22.585 20.472h-1.714c-0.507 0-0.922-0.381-0.988-0.906-0.002-0.014-0.003-0.028-0.003-0.042v-1.115c-0.818-0.2-1.607-0.534-2.311-0.977l-0.785 0.784c-0.363 0.363-1.030 0.302-1.374-0.041l-1.187-1.225c-0.356-0.368-0.301-1.024 0.045-1.369l0.789-0.787c-0.458-0.755-0.783-1.555-0.952-2.342h-1.108c-0.507 0-0.922-0.381-0.988-0.906-0.002-0.014-0.003-0.028-0.003-0.042v-1.71c0-0.506 0.382-0.921 0.908-0.986 0.014-0.002 0.028-0.003 0.042-0.003h1.118c0.201-0.816 0.535-1.603 0.979-2.305l-0.784-0.783c-0.363-0.363-0.303-1.030 0.041-1.373l1.228-1.185c0.368-0.355 1.025-0.3 1.37 0.045l0.789 0.788c0.757-0.457 1.559-0.782 2.348-0.95v-1.146c0-0.506 0.382-0.921 0.908-0.986 0.014-0.002 0.028-0.003 0.042-0.003h1.714c0.524 0 0.949 0.444 0.949 0.989v1.115c0.818 0.2 1.607 0.534 2.311 0.977l0.785-0.784c0.363-0.362 1.030-0.302 1.374 0.041l1.187 1.226c0.356 0.368 0.301 1.024-0.045 1.369l-0.788 0.787c0.458 0.755 0.783 1.555 0.952 2.342h1.108c0.539 0 0.962 0.373 1.028 0.906 0.002 0.014 0.003 0.028 0.003 0.042v1.71c0 0.506-0.382 0.921-0.908 0.986-0.014 0.002-0.028 0.003-0.042 0.003h-1.118c-0.201 0.816-0.535 1.603-0.979 2.305l0.784 0.783c0.013 0.013 0.025 0.027 0.036 0.043 0.308 0.431 0.277 0.978-0.077 1.331l-1.228 1.185c-0.012 0.011-0.025 0.022-0.038 0.032-0.431 0.307-0.979 0.276-1.332-0.077l-0.789-0.788c-0.757 0.457-1.559 0.782-2.348 0.95v1.105c0 0.506-0.382 0.921-0.908 0.986-0.014 0.002-0.028 0.002-0.042 0.002l0-0zM20.556 19.499c0.020 0.118 0.106 0.298 0.315 0.298h1.689c0.119-0.020 0.299-0.106 0.299-0.314v-1.384c0-0.165 0.119-0.306 0.282-0.333 0.869-0.144 1.77-0.507 2.606-1.049 0.133-0.087 0.309-0.068 0.422 0.044l0.979 0.977c0.138 0.137 0.322 0.097 0.446 0.017l1.204-1.161c0.133-0.132 0.093-0.313 0.014-0.437l-0.957-0.955c-0.115-0.115-0.132-0.296-0.040-0.43 0.522-0.761 0.899-1.648 1.090-2.565 0.033-0.156 0.17-0.268 0.33-0.268h1.363c0.119-0.020 0.299-0.106 0.299-0.314v-1.686c-0.015-0.089-0.080-0.298-0.356-0.298h-1.387c-0.165 0-0.306-0.119-0.333-0.282-0.145-0.867-0.508-1.765-1.052-2.599-0.087-0.134-0.069-0.31 0.044-0.423l0.979-0.977c0.137-0.137 0.097-0.32 0.017-0.442l-1.164-1.201c-0.133-0.133-0.316-0.094-0.439-0.014l-0.957 0.955c-0.115 0.115-0.295 0.131-0.429 0.040-0.763-0.521-1.652-0.897-2.571-1.088-0.157-0.033-0.269-0.17-0.269-0.33v-1.384c0-0.188-0.142-0.314-0.275-0.314h-1.689c-0.119 0.020-0.299 0.106-0.299 0.314v1.425c0 0.165-0.119 0.306-0.282 0.333-0.869 0.144-1.77 0.507-2.606 1.049-0.133 0.087-0.309 0.068-0.422-0.044l-0.979-0.977c-0.138-0.138-0.322-0.097-0.446-0.017l-1.204 1.161c-0.133 0.132-0.093 0.313-0.014 0.437l0.957 0.955c0.115 0.115 0.132 0.296 0.040 0.43-0.522 0.761-0.899 1.648-1.090 2.565-0.033 0.156-0.17 0.268-0.33 0.268h-1.363c-0.119 0.020-0.299 0.106-0.299 0.314v1.685c0.020 0.118 0.106 0.298 0.316 0.298h1.387c0.165 0 0.306 0.119 0.333 0.282 0.145 0.867 0.508 1.765 1.052 2.599 0.087 0.134 0.069 0.31-0.044 0.423l-0.979 0.977c-0.137 0.137-0.097 0.32-0.017 0.442l1.164 1.201c0.133 0.133 0.316 0.094 0.439 0.014l0.957-0.955c0.115-0.115 0.295-0.131 0.429-0.040 0.763 0.521 1.652 0.897 2.571 1.088 0.157 0.033 0.269 0.171 0.269 0.33l0 1.36-0 0z"></path>
<path d="M25.5 14.894h-7.422c-0.558 0-1.012-0.454-1.012-1.012v-1.87c0-0.186 0.151-0.337 0.337-0.337s0.337 0.151 0.337 0.337v1.87c0 0.186 0.151 0.337 0.337 0.337h7.422c0.186 0 0.337-0.151 0.337-0.337v-1.87c0-0.186 0.151-0.337 0.337-0.337s0.337 0.151 0.337 0.337v1.87c-0 0.558-0.454 1.012-1.012 1.012h-0z"></path>
<path d="M25.973 7.607h-2.024v-0.922c0-0.558-0.454-1.012-1.012-1.012h-2.294c-0.558 0-1.012 0.454-1.012 1.012v0.922h-2.024c-0.484 0-0.877 0.393-0.877 0.877v1.305c0 0.339 0.229 0.634 0.557 0.719l3.261 0.838v0.876c0 0.186 0.151 0.337 0.337 0.337h1.809c0.186 0 0.337-0.151 0.337-0.337v-0.876l3.261-0.838c0.328-0.084 0.557-0.38 0.557-0.719v-1.305c0-0.484-0.394-0.877-0.877-0.877h-0zM20.305 6.685c0-0.186 0.151-0.337 0.337-0.337h2.294c0.186 0 0.337 0.151 0.337 0.337v0.922h-2.969l-0-0.922zM22.357 11.885h-1.134v-1.134h1.134v1.134zM26.175 9.79c0 0.031-0.021 0.058-0.051 0.065l-3.093 0.795v-0.237c0-0.186-0.151-0.337-0.337-0.337h-1.809c-0.186 0-0.337 0.151-0.337 0.337v0.237l-3.093-0.795c-0.030-0.008-0.051-0.035-0.051-0.065l-0-1.305c0-0.112 0.091-0.202 0.202-0.202h8.367c0.112 0 0.202 0.091 0.202 0.202l-0 1.305z"></path>
<path d="M5.662 10.621h-1.344c-0.484 0-0.877-0.393-0.877-0.877v-0.491c-0.368-0.146-0.711-0.342-1.023-0.585l-0.443 0.253c-0.416 0.238-0.951 0.094-1.193-0.32l-0.667-1.144c-0.24-0.412-0.093-0.966 0.322-1.204l0.43-0.246c-0.055-0.385-0.055-0.778 0-1.164l-0.43-0.246c-0.414-0.237-0.564-0.791-0.322-1.204l0.667-1.144c0.241-0.414 0.776-0.557 1.193-0.32l0.443 0.253c0.312-0.243 0.655-0.439 1.023-0.585v-0.491c0-0.484 0.394-0.877 0.877-0.877h1.344c0.484 0 0.877 0.393 0.877 0.877v0.491c0.368 0.146 0.71 0.342 1.023 0.585l0.443-0.253c0.416-0.238 0.951-0.094 1.193 0.32l0.667 1.144c0.241 0.412 0.093 0.966-0.323 1.204l-0.43 0.246c0.055 0.385 0.055 0.779 0 1.164l0.43 0.246c0.415 0.238 0.565 0.788 0.323 1.204l-0.668 1.144c-0.242 0.414-0.777 0.557-1.193 0.32l-0.443-0.253c-0.312 0.243-0.654 0.439-1.023 0.585v0.491c0 0.484-0.393 0.877-0.877 0.877zM2.454 7.922c0.080 0 0.159 0.028 0.222 0.084 0.354 0.311 0.761 0.543 1.208 0.691 0.138 0.046 0.232 0.175 0.232 0.32v0.728c0 0.112 0.091 0.202 0.202 0.202h1.344c0.112 0 0.202-0.091 0.202-0.202v-0.728c0-0.146 0.093-0.275 0.232-0.32 0.447-0.148 0.854-0.38 1.208-0.691 0.108-0.095 0.265-0.111 0.39-0.039l0.646 0.369c0.096 0.055 0.22 0.022 0.275-0.074l0.668-1.144c0.052-0.113 0.028-0.206-0.074-0.278l-0.636-0.363c-0.127-0.072-0.192-0.218-0.163-0.361 0.093-0.453 0.093-0.926 0-1.379-0.029-0.143 0.037-0.288 0.163-0.361l0.636-0.363c0.102-0.072 0.127-0.165 0.074-0.278l-0.668-1.144c-0.056-0.095-0.179-0.129-0.275-0.074l-0.646 0.369c-0.125 0.071-0.281 0.055-0.39-0.039-0.354-0.311-0.761-0.543-1.208-0.691-0.138-0.046-0.232-0.175-0.232-0.32v-0.727c0-0.112-0.091-0.202-0.202-0.202h-1.344c-0.112 0-0.202 0.091-0.202 0.202v0.728c0 0.146-0.093 0.275-0.232 0.32-0.448 0.148-0.854 0.38-1.208 0.691-0.108 0.095-0.265 0.111-0.39 0.039l-0.646-0.369c-0.096-0.055-0.22-0.022-0.275 0.074l-0.667 1.144c-0.052 0.113-0.028 0.206 0.074 0.278l0.636 0.363c0.127 0.072 0.192 0.218 0.163 0.361-0.093 0.453-0.093 0.926 0 1.379 0.029 0.143-0.037 0.288-0.163 0.361l-0.636 0.363c-0.102 0.072-0.127 0.165-0.074 0.278l0.667 1.144c0.056 0.096 0.179 0.129 0.275 0.074l0.646-0.369c0.052-0.030 0.11-0.045 0.168-0.045v0z"></path>
<path d="M6.211 7.741c-0.1 0-0.2-0.025-0.292-0.075l-0.929-0.508-0.929 0.508c-0.43 0.235-0.971-0.143-0.89-0.632l0.183-1.11-0.783-0.793c-0.338-0.342-0.138-0.954 0.342-1.027l1.061-0.16 0.468-0.985c0.213-0.448 0.882-0.453 1.097 0l0.468 0.985 1.061 0.16c0.475 0.072 0.682 0.681 0.342 1.027l-0.782 0.794 0.183 1.11c0.059 0.359-0.236 0.707-0.599 0.707l0-0zM3.145 4.751l0.81 0.822c0.076 0.077 0.11 0.185 0.093 0.292l-0.189 1.143 0.969-0.53c0.101-0.055 0.223-0.055 0.324 0l0.969 0.53-0.189-1.143c-0.018-0.106 0.017-0.215 0.093-0.292l0.811-0.822-1.108-0.167c-0.111-0.017-0.206-0.088-0.254-0.189l-0.484-1.019-0.483 1.019c-0.048 0.101-0.143 0.172-0.254 0.189l-1.108 0.168z"></path>
<path d="M8.228 18.11c-1.86 0-3.374-1.513-3.374-3.373s1.513-3.373 3.374-3.373c1.86 0 3.374 1.513 3.374 3.373s-1.513 3.373-3.374 3.373zM8.228 12.038c-1.488 0-2.699 1.211-2.699 2.699s1.211 2.699 2.699 2.699c1.488 0 2.699-1.211 2.699-2.699s-1.211-2.699-2.699-2.699v0z"></path>
<path d="M7.709 16.082c-0.094 0-0.18-0.040-0.257-0.118l-0.777-0.912c-0.121-0.142-0.104-0.355 0.038-0.475s0.355-0.104 0.476 0.038l0.527 0.619 1.557-1.73c0.125-0.139 0.338-0.15 0.476-0.025s0.15 0.338 0.025 0.476l-1.815 2.016c-0.064 0.071-0.155 0.112-0.25 0.112v0z"></path>
</svg>
