<!-- Generated by IcoMoon.io -->
<svg version="1.1" xmlns="http://www.w3.org/2000/svg" width="32" height="32" viewBox="0 0 32 32">
<title>star</title>
<path d="M3.881 8.618l0.871 2.457h2.82l-2.281 1.519 0.871 2.457-2.281-1.519-2.281 1.519 0.871-2.457-2.281-1.519h2.82l0.871-2.457z"></path>
<path d="M9.941 12.612l0.871 2.457h2.82l-2.281 1.519 0.871 2.457-2.281-1.519-2.281 1.519 0.871-2.457-2.281-1.519h2.82l0.871-2.457z"></path>
<path d="M16 16.605l0.871 2.457h2.82l-2.281 1.519 0.871 2.457-2.281-1.519-2.281 1.519 0.871-2.457-2.281-1.519h2.82l0.871-2.457z"></path>
<path d="M22.061 12.612l0.871 2.457h2.82l-2.281 1.519 0.871 2.457-2.281-1.519-2.281 1.519 0.871-2.457-2.281-1.519h2.82l0.871-2.457z"></path>
<path d="M28.119 8.618l0.871 2.457h2.82l-2.281 1.519 0.871 2.457-2.281-1.519-2.281 1.519 0.871-2.457-2.281-1.519h2.82l0.871-2.457z"></path>
</svg>
