<?xml version="1.0" encoding="utf-8"?>
<!-- Svg Vector Icons : http://www.onlinewebfonts.com/icon -->
<!DOCTYPE svg PUBLIC "-//W3C//DTD SVG 1.1//EN" "http://www.w3.org/Graphics/SVG/1.1/DTD/svg11.dtd">
<svg version="1.1" xmlns="http://www.w3.org/2000/svg" xmlns:xlink="http://www.w3.org/1999/xlink" x="0px" y="0px" viewBox="0 0 1000 1000" enable-background="new 0 0 1000 1000" xml:space="preserve">
<metadata> Svg Vector Icons : http://www.onlinewebfonts.com/icon </metadata>
<g><g transform="translate(0.000000,512.000000) scale(0.100000,-0.100000)"><path d="M4434.8,4975.2l-47.9-46v-519v-519l47.9-46l46-47.9h519h519l46,47.9l47.9,46v519v519l-47.9,46l-46,47.9h-519h-519L4434.8,4975.2z M5306.3,4410.2v-306.4h-306.4h-306.4v306.4v306.4h306.4h306.4V4410.2z"/><path d="M3630.4,4345c-679.9-226-1254.5-582.2-1764-1091.7c-517.1-517.1-894.4-1131.9-1107-1808c-26.8-88.1-49.8-170.5-49.8-183.9c0-19.2,264.3-99.6,277.7-84.3c3.8,3.8,42.1,116.8,88.1,254.7c151.3,455.8,436.7,971,735.5,1331.1c159,191.5,501.8,519,683.7,656.9c346.7,258.6,802.5,496.1,1214.3,630.1l249,82.3l-36.4,139.8c-26.8,97.7-47.9,137.9-69,137.9C3835.4,4408.2,3735.8,4379.5,3630.4,4345z"/><path d="M6093.4,4310.6c-11.5-55.5-26.8-118.7-32.5-141.7c-9.6-36.4,11.5-47.9,235.6-120.7c270-88.1,655-266.2,900.2-419.4c478.8-296.9,932.7-737.4,1254.5-1220c164.7-249,381.1-697.2,475-986.4c74.7-229.8,86.2-250.9,122.6-241.3c23,5.8,86.2,21.1,141.7,32.6c69,17.2,99.6,32.6,99.6,53.6c0,70.9-164.7,507.5-279.6,746.9c-231.8,482.6-496.1,856.1-879.1,1239.2c-371.6,373.5-739.3,635.9-1220,869.5c-237.5,116.8-693.3,287.3-766.1,287.3C6126,4410.2,6108.8,4373.8,6093.4,4310.6z"/><path d="M4846.6,3031.2V2878h153.2H5153v153.2v153.2h-153.2h-153.2V3031.2z"/><path d="M2548.3,2418.3v-153.2h153.2h153.2v153.2v153.2h-153.2h-153.2V2418.3z"/><path d="M4846.6,2418.3v-153.2h153.2H5153v153.2v153.2h-153.2h-153.2V2418.3z"/><path d="M7144.9,2418.3v-153.2h153.2h153.2v153.2v153.2h-153.2h-153.2V2418.3z"/><path d="M4750.8,1784.4c-151.3-24.9-367.7-136-448.2-231.7c-275.8-321.8-294.9-997.8-42.1-1419.2c47.9-76.6,59.4-113,44.1-124.5c-13.4-9.6-231.7-136-488.4-281.5c-256.7-145.5-475-281.5-486.5-302.6c-11.5-23-17.2-134.1-11.5-289.2c5.7-220.3,13.4-264.3,57.5-358.1c61.3-136,174.3-262.4,273.9-306.4c70.9-32.6,159-36.4,1350.3-36.4c1191.3,0,1279.4,3.8,1350.3,36.4c99.6,44.1,212.6,170.4,273.9,306.4c44,93.8,51.7,137.9,57.5,358.1c5.7,155.1,0,266.2-11.5,289.2c-11.5,21.1-229.8,157.1-486.5,302.6c-256.6,145.6-475,272-488.4,283.5c-17.2,13.4-11.5,34.5,23,86.2c134.1,197.3,212.6,536.3,193.4,827.4c-32.5,509.5-256.6,792.9-681.8,860C5084.1,1809.3,4900.2,1807.3,4750.8,1784.4z M5369.5,1433.9c178.1-86.2,243.2-249,243.2-603.3c0-302.6-70.9-528.6-212.6-681.8C5273.7,10.8,5193.3-23.7,4999.8-23.7c-193.4,0-273.9,34.5-400.3,172.4C4455.9,303.9,4387,527.9,4387,842.1c0,515.2,147.5,664.6,653.1,651.2C5237.3,1487.5,5273.7,1481.7,5369.5,1433.9z M4685.7-266.9c120.7-57.5,147.5-63.2,314.1-63.2c164.7,0,193.4,5.7,316,63.2l136,63.2L5915.3-468l463.5-264.3v-153.2c0-176.2-24.9-283.5-78.5-337.1c-34.5-34.5-76.6-36.4-1300.5-36.4s-1266,1.9-1300.5,36.4c-53.6,53.6-78.5,160.9-78.5,337.1v153.2l455.8,262.4c249,143.7,459.7,262.4,465.4,262.4C4549.7-205.6,4614.9-234.3,4685.7-266.9z"/><path d="M537.3,702.2C265.3,602.6,75.7,330.7,102.5,74C123.6-130.9,273-339.7,470.3-435.4c141.7-68.9,344.7-67,482.6,5.7c143.6,74.7,220.3,149.4,294.9,285.4C1305.3-37.1,1313-8.3,1313,120c-1.9,174.3-51.7,293-181.9,421.4C968.2,706.1,726.9,771.2,537.3,702.2z M897.4,376.6c84.3-63.2,122.6-155.1,113-281.5C998.9-96.4,884-194.1,684.8-180.7C493.2-169.2,395.6-54.3,409,144.9c7.7,126.4,49.8,197.3,149.4,249C644.5,439.8,822.7,430.3,897.4,376.6z"/><path d="M8725,685c-30.6-28.7-47.9-67-47.9-107.3c0-51.7,30.6-91.9,195.4-258.6L9067.8,120L8872.5-79.2c-164.7-166.6-195.4-206.8-195.4-258.6c0-40.2,17.2-78.5,49.8-111.1c40.2-40.2,61.3-46,118.8-36.4c55.6,7.6,107.3,47.9,256.7,197.3L9290-102.2l201.1-197.3c195.4-193.4,203-197.3,272-187.7c88.1,15.3,118.8,46,134.1,134.1c9.6,69,5.7,76.6-187.7,272L9512.2,120l185.8,187.7c149.4,149.4,189.6,201.1,197.3,256.7c9.6,57.5,3.8,78.5-36.4,118.7c-32.6,32.6-70.9,49.8-111.1,49.8c-51.7,0-91.9-30.6-258.6-195.4L9290,342.2l-199.2,195.4c-166.6,164.7-206.8,195.4-258.6,195.4C8792,732.9,8753.7,715.6,8725,685z"/><path d="M1935.4,120V-33.2h153.2h153.2V120v153.2h-153.2h-153.2V120z"/><path d="M2548.3,120V-33.2h153.2h153.2V120v153.2h-153.2h-153.2V120z"/><path d="M7144.9,120V-33.2h153.2h153.2V120v153.2h-153.2h-153.2V120z"/><path d="M7757.8,120V-33.2H7911h153.2V120v153.2H7911h-153.2V120z"/><path d="M849.5-975.5c-76.6-21.1-139.8-47.9-139.8-57.5c0-72.8,185.8-553.5,308.4-800.6C1339.8-2479,1782.2-3011.4,2343.4-3429c283.5-210.7,448.2-310.3,762.3-461.6c254.7-122.6,678-279.6,756.5-279.6c36.4,0,46,19.2,74.7,134.1c19.2,74.7,30.6,137.9,26.8,141.7c-3.8,1.9-122.6,42.1-262.4,86.2c-452,145.5-984.4,438.6-1342.6,737.4c-197.3,164.7-503.7,484.6-651.2,678c-264.3,348.6-501.8,804.4-635.9,1214.3c-44,134.1-80.4,245.1-82.4,243.2C989.3-935.3,924.2-954.5,849.5-975.5z"/><path d="M8928-1178.5c-88.1-270.1-266.2-653.1-419.4-898.3c-296.9-478.8-737.4-932.7-1220-1254.5c-252.8-168.6-697.2-381.1-990.2-476.9c-139.8-44.1-256.6-82.4-258.6-82.4c-1.9-1.9,11.5-63.2,30.7-136c23-90,44-136,65.1-139.8c59.4-11.5,503.7,151.3,789.1,291.1c909.7,442.4,1626.1,1158.7,2070.4,2070.4c128.3,262.4,293,701,295,777.6c0,23-34.5,40.2-124.5,63.2c-67,17.2-130.2,30.6-139.8,30.6C9016.1-933.4,8972.1-1044.5,8928-1178.5z"/><path d="M2548.3-2178.3v-153.2h153.2h153.2v153.2v153.2h-153.2h-153.2V-2178.3z"/><path d="M4846.6-2178.3v-153.2h153.2H5153v153.2v153.2h-153.2h-153.2V-2178.3z"/><path d="M7144.9-2178.3v-153.2h153.2h153.2v153.2v153.2h-153.2h-153.2V-2178.3z"/><path d="M4846.6-2791.2v-153.2h153.2H5153v153.2v153.2h-153.2h-153.2V-2791.2z"/><path d="M4921.3-3576.4c-15.3-9.6-178.1-239.4-358.1-511.4c-227.9-342.8-329.4-511.4-329.4-547.8c0-30.6,19.2-72.8,47.9-99.6l46-47.9h672.3h672.2l46,47.9c28.7,26.8,47.9,68.9,47.9,99.6c0,36.4-101.5,204.9-329.4,547.8c-182,272-344.7,503.7-362,513.3C5032.4-3553.5,4961.5-3553.5,4921.3-3576.4z M5168.4-4237.2l157.1-239.4h-325.6h-325.6l157.1,239.4c88.1,130.2,162.8,237.5,168.5,237.5S5080.3-4107,5168.4-4237.2z"/></g></g>
</svg>