<?xml version="1.0" encoding="UTF-8"?>
<svg width="700pt" height="700pt" version="1.1" viewBox="0 0 700 700" xmlns="http://www.w3.org/2000/svg" xmlns:xlink="http://www.w3.org/1999/xlink">
 <defs>
  <symbol id="u" overflow="visible">
   <path d="m4.0156-0.23438c-0.21094 0.10547-0.42969 0.18359-0.65625 0.23438-0.21875 0.050781-0.45312 0.078125-0.70312 0.078125-0.71875 0-1.293-0.20312-1.7188-0.60938-0.42969-0.40625-0.64062-0.95312-0.64062-1.6406 0-0.69531 0.21094-1.25 0.64062-1.6562 0.42578-0.40625 1-0.60938 1.7188-0.60938 0.25 0 0.48438 0.027344 0.70312 0.078125 0.22656 0.054687 0.44531 0.13672 0.65625 0.25v0.89062c-0.21094-0.13281-0.41797-0.23438-0.625-0.29688-0.19922-0.070313-0.41406-0.10938-0.64062-0.10938-0.39844 0-0.71094 0.13281-0.9375 0.39062-0.23047 0.25-0.34375 0.60547-0.34375 1.0625 0 0.44922 0.11328 0.80469 0.34375 1.0625 0.22656 0.25 0.53906 0.375 0.9375 0.375 0.22656 0 0.44141-0.03125 0.64062-0.09375 0.20703-0.0625 0.41406-0.16406 0.625-0.3125z"/>
  </symbol>
  <symbol id="c" overflow="visible">
   <path d="m2.9375-2.375c-0.09375-0.050781-0.1875-0.082031-0.28125-0.09375-0.085938-0.019531-0.17188-0.03125-0.26562-0.03125-0.27344 0-0.48047 0.089844-0.625 0.26562-0.14844 0.16797-0.21875 0.41406-0.21875 0.73438v1.5h-1.0469v-3.2656h1.0469v0.53125c0.13281-0.21875 0.28516-0.375 0.45312-0.46875 0.17578-0.10156 0.39062-0.15625 0.64062-0.15625 0.03125 0 0.066406 0.007813 0.10938 0.015625 0.039062 0 0.10156 0.007812 0.1875 0.015625z"/>
  </symbol>
  <symbol id="a" overflow="visible">
   <path d="m3.7656-1.6406v0.29688h-2.4375c0.019531 0.24219 0.10156 0.42188 0.25 0.54688 0.15625 0.125 0.375 0.1875 0.65625 0.1875 0.21875 0 0.44141-0.03125 0.67188-0.09375 0.22656-0.070313 0.46094-0.17188 0.70312-0.29688v0.79688c-0.24219 0.09375-0.48438 0.16406-0.73438 0.20312-0.25 0.050781-0.5 0.078125-0.75 0.078125-0.59375 0-1.0586-0.14453-1.3906-0.4375-0.32422-0.30078-0.48438-0.72656-0.48438-1.2812 0-0.53125 0.16016-0.94531 0.48438-1.25 0.32031-0.3125 0.76953-0.46875 1.3438-0.46875 0.50781 0 0.91406 0.15625 1.2188 0.46875 0.3125 0.3125 0.46875 0.73047 0.46875 1.25zm-1.0781-0.35938c0-0.19531-0.058594-0.35156-0.17188-0.46875-0.11719-0.125-0.26562-0.1875-0.45312-0.1875-0.19922 0-0.36719 0.058594-0.5 0.17188-0.125 0.11719-0.20312 0.27734-0.23438 0.48438z"/>
  </symbol>
  <symbol id="i" overflow="visible">
   <path d="m1.9688-1.4688c-0.21875 0-0.38672 0.039062-0.5 0.10938-0.10547 0.074219-0.15625 0.18359-0.15625 0.32812 0 0.13672 0.039062 0.24219 0.125 0.3125 0.09375 0.074219 0.21875 0.10938 0.375 0.10938 0.19531 0 0.36328-0.066406 0.5-0.20312 0.13281-0.14453 0.20312-0.32812 0.20312-0.54688v-0.10938zm1.5938-0.40625v1.875h-1.0469v-0.48438c-0.14844 0.19922-0.30859 0.34375-0.48438 0.4375-0.16797 0.082031-0.375 0.125-0.625 0.125-0.34375 0-0.625-0.097656-0.84375-0.29688-0.21094-0.19531-0.3125-0.45312-0.3125-0.76562 0-0.38281 0.12891-0.66406 0.39062-0.84375 0.26953-0.17578 0.6875-0.26562 1.25-0.26562h0.625v-0.078125c0-0.16406-0.070313-0.28516-0.20312-0.35938-0.125-0.082031-0.32812-0.125-0.60938-0.125-0.21875 0-0.42969 0.027344-0.625 0.078125-0.1875 0.042969-0.36719 0.10547-0.53125 0.1875v-0.79688c0.21875-0.050781 0.44141-0.09375 0.67188-0.125 0.22656-0.03125 0.45312-0.046875 0.67188-0.046875 0.59375 0 1.0195 0.12109 1.2812 0.35938 0.25781 0.23047 0.39062 0.60547 0.39062 1.125z"/>
  </symbol>
  <symbol id="b" overflow="visible">
   <path d="m1.6406-4.2031v0.9375h1.0781v0.73438h-1.0781v1.3906c0 0.15625 0.03125 0.26172 0.09375 0.3125 0.0625 0.054687 0.17969 0.078125 0.35938 0.078125h0.53125v0.75h-0.89062c-0.41797 0-0.71484-0.082031-0.89062-0.25-0.16797-0.17578-0.25-0.47266-0.25-0.89062v-1.3906h-0.51562v-0.73438h0.51562v-0.9375z"/>
  </symbol>
  <symbol id="h" overflow="visible">
   <path d="m2.7344-2.7969v-1.75h1.0469v4.5469h-1.0469v-0.46875c-0.14844 0.1875-0.30859 0.32812-0.48438 0.42188-0.16797 0.082031-0.36719 0.125-0.59375 0.125-0.40625 0-0.74219-0.15625-1-0.46875-0.26172-0.32031-0.39062-0.73828-0.39062-1.25 0-0.5 0.12891-0.91016 0.39062-1.2344 0.25781-0.32031 0.59375-0.48438 1-0.48438 0.21875 0 0.41406 0.046875 0.59375 0.14062 0.17578 0.09375 0.33594 0.23438 0.48438 0.42188zm-0.6875 2.125c0.21875 0 0.38281-0.082031 0.5-0.25 0.125-0.16406 0.1875-0.40625 0.1875-0.71875 0-0.30078-0.0625-0.53516-0.1875-0.70312-0.11719-0.16406-0.28125-0.25-0.5-0.25-0.23047 0-0.40234 0.085938-0.51562 0.25-0.11719 0.16797-0.17188 0.40234-0.17188 0.70312 0 0.3125 0.054687 0.55469 0.17188 0.71875 0.11328 0.16797 0.28516 0.25 0.51562 0.25z"/>
  </symbol>
  <symbol id="g" overflow="visible">
   <path d="m2.25-0.67188c0.21875 0 0.38281-0.082031 0.5-0.25 0.125-0.16406 0.1875-0.40625 0.1875-0.71875 0-0.30078-0.0625-0.53516-0.1875-0.70312-0.11719-0.16406-0.28125-0.25-0.5-0.25-0.23047 0-0.40625 0.085938-0.53125 0.25-0.11719 0.16797-0.17188 0.40234-0.17188 0.70312 0 0.3125 0.054687 0.55469 0.17188 0.71875 0.125 0.16797 0.30078 0.25 0.53125 0.25zm-0.70312-2.125c0.14453-0.1875 0.30469-0.32812 0.48438-0.42188 0.17578-0.09375 0.375-0.14062 0.59375-0.14062 0.40625 0 0.73828 0.16406 1 0.48438 0.25781 0.32422 0.39062 0.73438 0.39062 1.2344 0 0.51172-0.13281 0.92969-0.39062 1.25-0.26172 0.3125-0.59375 0.46875-1 0.46875-0.21875 0-0.41797-0.042969-0.59375-0.125-0.17969-0.09375-0.33984-0.23438-0.48438-0.42188v0.46875h-1.0469v-4.5469h1.0469z"/>
  </symbol>
  <symbol id="f" overflow="visible">
   <path d="m0.078125-3.2656h1.0469l0.875 2.2188 0.75-2.2188h1.0469l-1.375 3.5781c-0.14844 0.36328-0.3125 0.61719-0.5 0.76562-0.17969 0.14453-0.41797 0.21875-0.71875 0.21875h-0.60938v-0.6875h0.32812c0.17578 0 0.30469-0.03125 0.39062-0.09375 0.082031-0.054687 0.14453-0.15234 0.1875-0.29688l0.03125-0.09375z"/>
  </symbol>
  <symbol id="e" overflow="visible">
   <path d="m3.5781-4.2188v0.92188c-0.24219-0.11328-0.47656-0.19531-0.70312-0.25-0.21875-0.050781-0.43359-0.078125-0.64062-0.078125-0.27344 0-0.46875 0.039062-0.59375 0.10938-0.125 0.074219-0.1875 0.1875-0.1875 0.34375 0 0.11719 0.039063 0.21094 0.125 0.28125 0.082031 0.0625 0.23828 0.11719 0.46875 0.15625l0.48438 0.10938c0.48828 0.09375 0.83203 0.24219 1.0312 0.4375 0.20703 0.19922 0.3125 0.48047 0.3125 0.84375 0 0.48047-0.14844 0.83984-0.4375 1.0781-0.28125 0.23047-0.71484 0.34375-1.2969 0.34375-0.28125 0-0.5625-0.027344-0.84375-0.078125-0.27344-0.050781-0.54688-0.12891-0.82812-0.23438v-0.9375c0.28125 0.14844 0.55078 0.25781 0.8125 0.32812 0.25781 0.074219 0.50781 0.10938 0.75 0.10938 0.23828 0 0.42188-0.035156 0.54688-0.10938 0.13281-0.082031 0.20312-0.20312 0.20312-0.35938 0-0.13281-0.046875-0.23828-0.14062-0.3125-0.085937-0.070313-0.25781-0.14062-0.51562-0.20312l-0.4375-0.09375c-0.4375-0.09375-0.76172-0.23828-0.96875-0.4375-0.19922-0.20703-0.29688-0.48828-0.29688-0.84375 0-0.42578 0.14062-0.75391 0.42188-0.98438 0.28125-0.23828 0.6875-0.35938 1.2188-0.35938 0.23828 0 0.48438 0.023438 0.73438 0.0625 0.25 0.03125 0.50781 0.085938 0.78125 0.15625z"/>
  </symbol>
  <symbol id="t" overflow="visible">
   <path d="m2.2969-2.6719c0.17578 0 0.3125-0.035156 0.40625-0.10938 0.09375-0.082031 0.14062-0.20312 0.14062-0.35938 0-0.14453-0.046875-0.25391-0.14062-0.32812-0.09375-0.082031-0.23047-0.125-0.40625-0.125h-0.625v0.92188zm0.03125 1.9062c0.22656 0 0.39844-0.046875 0.51562-0.14062 0.11328-0.09375 0.17188-0.23828 0.17188-0.4375 0-0.1875-0.058594-0.32812-0.17188-0.42188-0.11719-0.09375-0.28906-0.14062-0.51562-0.14062h-0.65625v1.1406zm1.0469-1.5625c0.25 0.0625 0.4375 0.19531 0.5625 0.39062 0.13281 0.1875 0.20312 0.41797 0.20312 0.6875 0 0.41797-0.14844 0.73047-0.4375 0.9375-0.28125 0.21094-0.71094 0.3125-1.2812 0.3125h-1.875v-4.3594h1.6875c0.60156 0 1.0391 0.09375 1.3125 0.28125 0.28125 0.17969 0.42188 0.46875 0.42188 0.875 0 0.21094-0.054688 0.39062-0.15625 0.54688-0.09375 0.14844-0.24219 0.25781-0.4375 0.32812z"/>
  </symbol>
  <symbol id="s" overflow="visible">
   <path d="m0.03125-4.3594h4.0156v0.84375h-1.4375v3.5156h-1.125v-3.5156h-1.4531z"/>
  </symbol>
  <symbol id="r" overflow="visible">
   <path d="m2.6562-4.5469v0.6875h-0.57812c-0.14844 0-0.25 0.027344-0.3125 0.078125-0.054687 0.054688-0.078125 0.14844-0.078125 0.28125v0.23438h0.89062v0.73438h-0.89062v2.5312h-1.0469v-2.5312h-0.53125v-0.73438h0.53125v-0.23438c0-0.35156 0.097656-0.61328 0.29688-0.78125 0.19531-0.17578 0.50391-0.26562 0.92188-0.26562z"/>
  </symbol>
  <symbol id="d" overflow="visible">
   <path d="m2.0625-2.6094c-0.23047 0-0.40625 0.085937-0.53125 0.25-0.125 0.16797-0.1875 0.40625-0.1875 0.71875 0 0.32422 0.0625 0.57031 0.1875 0.73438 0.125 0.16797 0.30078 0.25 0.53125 0.25 0.22656 0 0.39844-0.082031 0.51562-0.25 0.125-0.16406 0.1875-0.41016 0.1875-0.73438 0-0.3125-0.0625-0.55078-0.1875-0.71875-0.11719-0.16406-0.28906-0.25-0.51562-0.25zm0-0.75c0.5625 0 1 0.15625 1.3125 0.46875 0.32031 0.30469 0.48438 0.71875 0.48438 1.25 0 0.54297-0.16406 0.96484-0.48438 1.2656-0.3125 0.30469-0.75 0.45312-1.3125 0.45312s-1.0078-0.14844-1.3281-0.45312c-0.32422-0.30078-0.48438-0.72266-0.48438-1.2656 0-0.53125 0.16016-0.94531 0.48438-1.25 0.32031-0.3125 0.76562-0.46875 1.3281-0.46875z"/>
  </symbol>
  <symbol id="q" overflow="visible">
   <path d="m3.5312-2.7344c0.13281-0.19531 0.28906-0.34766 0.46875-0.45312 0.1875-0.11328 0.39062-0.17188 0.60938-0.17188 0.375 0 0.66016 0.12109 0.85938 0.35938 0.19531 0.23047 0.29688 0.5625 0.29688 1v2h-1.0625v-1.7031c0.007813-0.03125 0.015625-0.054687 0.015625-0.078125v-0.125c0-0.22656-0.039062-0.39453-0.10938-0.5-0.0625-0.10156-0.17188-0.15625-0.32812-0.15625-0.19922 0-0.35547 0.085938-0.46875 0.25-0.10547 0.15625-0.15625 0.39062-0.15625 0.70312v1.6094h-1.0469v-1.7031c0-0.36328-0.03125-0.59766-0.09375-0.70312-0.0625-0.10156-0.17969-0.15625-0.34375-0.15625-0.19922 0-0.35547 0.085938-0.46875 0.25-0.10547 0.16797-0.15625 0.40234-0.15625 0.70312v1.6094h-1.0469v-3.2656h1.0469v0.46875c0.125-0.1875 0.26953-0.32812 0.4375-0.42188 0.16406-0.09375 0.35156-0.14062 0.5625-0.14062 0.21875 0 0.41406 0.058594 0.59375 0.17188 0.17578 0.10547 0.30469 0.25781 0.39062 0.45312z"/>
  </symbol>
  <symbol id="p" overflow="visible">
   <path d="m3.7969-2v2h-1.0625v-1.5156c0-0.28906-0.007813-0.48828-0.015625-0.59375-0.011719-0.10156-0.03125-0.17969-0.0625-0.23438-0.042969-0.070312-0.10156-0.125-0.17188-0.15625-0.0625-0.039062-0.14062-0.0625-0.23438-0.0625-0.21875 0-0.39062 0.085938-0.51562 0.25-0.125 0.16797-0.1875 0.40234-0.1875 0.70312v1.6094h-1.0469v-4.5469h1.0469v1.75c0.15625-0.1875 0.32031-0.32812 0.5-0.42188 0.17578-0.09375 0.375-0.14062 0.59375-0.14062 0.375 0 0.66016 0.12109 0.85938 0.35938 0.19531 0.23047 0.29688 0.5625 0.29688 1z"/>
  </symbol>
  <symbol id="o" overflow="visible">
   <path d="m0.54688-4.3594h1.2656l1.5781 2.9844v-2.9844h1.0625v4.3594h-1.25l-1.5938-3v3h-1.0625z"/>
  </symbol>
  <symbol id="n" overflow="visible">
   <path d="m0.46875-1.2812v-1.9844h1.0469v0.3125 0.6875 0.53125c0 0.26172 0.003906 0.44922 0.015625 0.5625 0.007812 0.11719 0.035156 0.19922 0.078125 0.25 0.039063 0.074219 0.09375 0.13281 0.15625 0.17188 0.070313 0.03125 0.15625 0.046875 0.25 0.046875 0.21875 0 0.39062-0.082031 0.51562-0.25 0.125-0.16406 0.1875-0.39844 0.1875-0.70312v-1.6094h1.0312v3.2656h-1.0312v-0.46875c-0.16797 0.1875-0.33984 0.32812-0.51562 0.42188-0.16797 0.082031-0.35938 0.125-0.57812 0.125-0.375 0-0.66406-0.11328-0.85938-0.34375-0.19922-0.22656-0.29688-0.56641-0.29688-1.0156z"/>
  </symbol>
  <symbol id="m" overflow="visible">
   <path d="m3.7969-2v2h-1.0625v-1.5312c0-0.28125-0.007813-0.47266-0.015625-0.57812-0.011719-0.10156-0.03125-0.17969-0.0625-0.23438-0.042969-0.070312-0.10156-0.125-0.17188-0.15625-0.0625-0.039062-0.14062-0.0625-0.23438-0.0625-0.21875 0-0.39062 0.085938-0.51562 0.25-0.125 0.16797-0.1875 0.40234-0.1875 0.70312v1.6094h-1.0469v-3.2656h1.0469v0.46875c0.15625-0.1875 0.32031-0.32812 0.5-0.42188 0.17578-0.09375 0.375-0.14062 0.59375-0.14062 0.375 0 0.66016 0.12109 0.85938 0.35938 0.19531 0.23047 0.29688 0.5625 0.29688 1z"/>
  </symbol>
  <symbol id="l" overflow="visible">
   <path d="m0.54688-4.3594h1.875c0.55078 0 0.97266 0.125 1.2656 0.375 0.30078 0.24219 0.45312 0.58984 0.45312 1.0469 0 0.46094-0.15234 0.8125-0.45312 1.0625-0.29297 0.24219-0.71484 0.35938-1.2656 0.35938h-0.75v1.5156h-1.125zm1.125 0.8125v1.2188h0.625c0.21875 0 0.38281-0.050781 0.5-0.15625 0.125-0.10156 0.1875-0.25391 0.1875-0.45312 0-0.19531-0.0625-0.34766-0.1875-0.45312-0.11719-0.10156-0.28125-0.15625-0.5-0.15625z"/>
  </symbol>
  <symbol id="k" overflow="visible">
   <path d="m0.5-3.2656h1.0469v3.2031c0 0.4375-0.10547 0.76953-0.3125 1-0.21094 0.23828-0.51562 0.35938-0.92188 0.35938h-0.51562v-0.6875h0.1875c0.19531 0 0.33203-0.046875 0.40625-0.14062 0.070313-0.085938 0.10938-0.26172 0.10938-0.53125zm0-1.2812h1.0469v0.85938h-1.0469z"/>
  </symbol>
  <symbol id="j" overflow="visible">
   <path d="m3.1406-3.1719v0.85938c-0.13672-0.10156-0.27734-0.17578-0.42188-0.21875-0.14844-0.050781-0.29688-0.078125-0.45312-0.078125-0.29297 0-0.52344 0.089844-0.6875 0.26562-0.15625 0.16797-0.23438 0.40234-0.23438 0.70312 0 0.3125 0.078125 0.55859 0.23438 0.73438 0.16406 0.16797 0.39453 0.25 0.6875 0.25 0.16406 0 0.32031-0.023438 0.46875-0.078125 0.14453-0.050781 0.28125-0.125 0.40625-0.21875v0.85938c-0.15625 0.0625-0.32422 0.10156-0.5 0.125-0.16797 0.03125-0.33594 0.046875-0.5 0.046875-0.59375 0-1.0586-0.14844-1.3906-0.45312-0.33594-0.30078-0.5-0.72266-0.5-1.2656 0-0.53125 0.16406-0.94531 0.5-1.25 0.33203-0.3125 0.79688-0.46875 1.3906-0.46875 0.17578 0 0.34766 0.015625 0.51562 0.046875 0.16406 0.03125 0.32812 0.078125 0.48438 0.14062z"/>
  </symbol>
 </defs>
 <g>
  <path d="m614.75 407.88c-8.0742-16.324-28.723-23.043-44.875-14.488l-105.55 55.863h-13.934c6.1953-6.7812 9.5781-15.508 9.5625-24.754-0.035156-20.18-16.48-36.602-36.66-36.602h-79.297l-40.281-28.824c-9.1953-6.5781-20.031-10.059-31.34-10.059h-15.156c-3.3047 0-5.9844 2.6797-5.9844 5.9844 0 3.3047 2.6797 5.9844 5.9844 5.9844h15.156c8.793 0 17.223 2.7031 24.375 7.8203l41.844 29.941c1.0156 0.72656 2.2344 1.1172 3.4805 1.1172h81.215c13.594 0 24.672 11.059 24.695 24.652 0.023438 13.477-11.215 24.734-24.695 24.734h-6.7578c-15.371 0-30.383 6.2695-41.184 17.207-2.3203 2.8281-2.3008 5.6484 0.050782 8.4609 2.3516 2.3242 6.1406 2.3008 8.4609-0.050781 8.5703-8.6758 20.477-13.648 32.672-13.648h49.277c0.97656 0 1.9375-0.23828 2.7969-0.69531l106.86-56.559c10.316-5.4609 23.418-1.1602 28.551 9.2188 4.9961 10.102 1.1602 22.246-8.7305 27.645l-187.02 102.13c-11.34 6.1914-24.656 6.832-36.535 1.7539l-158.79-67.863c-0.6875-0.29297-1.4219-0.45703-2.168-0.48047l-15.535-0.48047 0.003907-141.52c0-3.3047-2.6797-5.9844-5.9844-5.9844h-101.52c-3.3047 0-5.9844 2.6797-5.9844 5.9844v165.14c0 3.3047 2.6797 5.9844 5.9844 5.9844h101.52c3.3047 0 5.9844-2.6797 5.9844-5.9844v-11.645l14.035 0.43359 157.76 67.418c15.051 6.4297 32.613 5.5859 46.973-2.2539l187.02-102.13c15.551-8.4883 21.578-27.578 13.723-43.453zm-431.48 85.645h-89.551v-153.18h89.551z"/>
  <path d="m138.5 474.25c-13.859 0-25.133-11.273-25.133-25.129 0-13.859 11.273-25.129 25.133-25.129s25.133 11.273 25.133 25.129c0 13.855-11.277 25.129-25.133 25.129zm0-38.297c-7.2578 0-13.164 5.9062-13.164 13.164 0 7.2578 5.9062 13.164 13.164 13.164 7.2578 0 13.164-5.9062 13.164-13.164 0-7.2578-5.9062-13.164-13.164-13.164z"/>
  <path d="m231.69 355c0 4.2969-3.4844 7.7773-7.7773 7.7773-4.2969 0-7.7773-3.4805-7.7773-7.7773 0-4.293 3.4805-7.7773 7.7773-7.7773 4.293 0 7.7773 3.4844 7.7773 7.7773"/>
  <path d="m470.59 359h-30.398c-8.9844 0-16.352-6.7578-17.516-16.074-0.03125-0.24609-0.046875-0.49609-0.046875-0.74219v-19.773c-14.504-3.5547-28.508-9.4766-40.996-17.332l-13.93 13.898c-6.4453 6.4297-18.277 5.3633-24.375-0.72266l-21.059-21.734c-6.3125-6.5273-5.3398-18.164 0.79297-24.285l13.988-13.957c-8.125-13.391-13.891-27.582-16.879-41.539h-19.656c-8.9844 0-16.352-6.7578-17.52-16.07-0.03125-0.24609-0.046876-0.49609-0.046876-0.74609v-30.328c0-8.9727 6.7695-16.328 16.098-17.492 0.24609-0.03125 0.49219-0.046875 0.74219-0.046875h19.832c3.5625-14.465 9.4922-28.434 17.359-40.887l-13.914-13.883c-6.4453-6.4453-5.3828-18.262 0.72266-24.359l21.785-21.012c6.5273-6.293 18.176-5.3203 24.301 0.79297l14 13.969c13.426-8.1133 27.656-13.871 41.648-16.855v-20.32c0-8.9727 6.7695-16.328 16.098-17.492 0.24609-0.03125 0.49219-0.046875 0.74219-0.046875h30.398c9.2852 0 16.84 7.8672 16.84 17.535v19.773c14.504 3.5547 28.508 9.4766 40.996 17.332l13.93-13.898c6.4453-6.4297 18.277-5.3594 24.375 0.72266l21.059 21.738c6.3125 6.5273 5.3398 18.164-0.79688 24.285l-13.984 13.957c8.125 13.391 13.891 27.582 16.879 41.539h19.656c9.5547 0 17.055 6.6094 18.242 16.074 0.03125 0.24609 0.046875 0.49609 0.046875 0.74219v30.328c0 8.9727-6.7695 16.328-16.098 17.492-0.24609 0.03125-0.49219 0.046874-0.74219 0.046874h-19.832c-3.5625 14.465-9.4922 28.434-17.359 40.887l13.914 13.883c0.23438 0.23438 0.44922 0.48438 0.64063 0.75391 5.4688 7.6406 4.9102 17.348-1.3633 23.605l-21.785 21.012c-0.21484 0.20312-0.44141 0.39453-0.67969 0.56641-7.6445 5.4492-17.359 4.8906-23.621-1.3594l-14-13.969c-13.426 8.1133-27.652 13.871-41.648 16.855v19.602c0 8.9727-6.7695 16.328-16.098 17.492-0.24609 0.027343-0.49219 0.042968-0.74219 0.042968zm-35.992-17.25c0.36328 2.0977 1.8828 5.2812 5.5938 5.2812h29.965c2.1055-0.36328 5.3047-1.875 5.3047-5.5703v-24.551c0-2.9258 2.1172-5.4219 5-5.9023 15.41-2.5625 31.391-9 46.215-18.613 2.3672-1.5352 5.4844-1.207 7.4805 0.78516l17.371 17.332c2.4453 2.4375 5.707 1.7227 7.9023 0.30469l21.352-20.594c2.3516-2.3477 1.6562-5.5586 0.25391-7.7422l-16.973-16.934c-2.043-2.0391-2.3398-5.2422-0.70703-7.6211 9.2578-13.5 15.945-29.234 19.34-45.5 0.57812-2.7734 3.0234-4.7617 5.8555-4.7617h24.176c2.1055-0.36328 5.3047-1.875 5.3047-5.5703v-29.898c-0.26953-1.5703-1.4258-5.2812-6.3203-5.2812h-24.605c-2.9258 0-5.4219-2.1133-5.9023-5-2.5664-15.371-9.0156-31.312-18.652-46.102-1.543-2.3711-1.2188-5.5 0.78906-7.5l17.367-17.332c2.4336-2.4297 1.7227-5.668 0.30469-7.8477l-20.637-21.305c-2.3633-2.3555-5.5977-1.6602-7.793-0.25391l-16.973 16.934c-2.0352 2.0312-5.2266 2.3242-7.6016 0.70703-13.535-9.2383-29.305-15.914-45.609-19.305-2.7773-0.57812-4.7656-3.0234-4.7656-5.8594v-24.551c0-3.332-2.5195-5.5703-4.8711-5.5703h-29.965c-2.1055 0.36328-5.3047 1.875-5.3047 5.5703v25.277c0 2.9258-2.1172 5.4219-5 5.9023-15.406 2.5625-31.391 9-46.215 18.613-2.3672 1.5352-5.4844 1.207-7.4805-0.78516l-17.371-17.332c-2.4453-2.4414-5.707-1.7266-7.9023-0.30469l-21.352 20.594c-2.3516 2.3477-1.6562 5.5586-0.25391 7.7422l16.973 16.934c2.043 2.0391 2.3398 5.2422 0.70703 7.6211-9.2578 13.5-15.945 29.234-19.34 45.5-0.57812 2.7734-3.0234 4.7617-5.8555 4.7617h-24.176c-2.1055 0.36328-5.3047 1.875-5.3047 5.5703v29.895c0.36328 2.0977 1.8828 5.2812 5.5977 5.2812h24.605c2.9258 0 5.4219 2.1133 5.9023 5 2.5664 15.371 9.0156 31.312 18.652 46.102 1.543 2.3711 1.2188 5.5-0.78906 7.5l-17.371 17.332c-2.4336 2.4258-1.7188 5.668-0.30078 7.8477l20.637 21.301c2.3633 2.3555 5.5977 1.6602 7.793 0.25391l16.973-16.934c2.0352-2.0312 5.2266-2.3242 7.6016-0.70703 13.531 9.2383 29.305 15.914 45.609 19.305 2.7773 0.57812 4.7656 3.0234 4.7656 5.8594l0.003906 24.121z"/>
  <path d="m522.29 260.07h-131.64c-9.8984 0-17.949-8.0547-17.949-17.949v-33.168c0-3.3047 2.6797-5.9844 5.9844-5.9844s5.9844 2.6797 5.9844 5.9844v33.164c0 3.3008 2.6836 5.9844 5.9844 5.9844h131.64c3.3008 0 5.9844-2.6836 5.9844-5.9844v-33.164c0-3.3047 2.6797-5.9844 5.9844-5.9844s5.9844 2.6797 5.9844 5.9844v33.164c-0.003906 9.9023-8.0586 17.953-17.957 17.953z"/>
  <path d="m530.67 130.83h-35.902v-16.348c0-9.8984-8.0547-17.949-17.949-17.949h-40.691c-9.8984 0-17.949 8.0547-17.949 17.949v16.348h-35.902c-8.5781 0-15.559 6.9766-15.559 15.559v23.152c0 6.0078 4.0664 11.25 9.8867 12.75l57.84 14.871v15.531c0 3.3047 2.6797 5.9844 5.9844 5.9844h32.09c3.3047 0 5.9844-2.6797 5.9844-5.9844v-15.531l57.84-14.871c5.8203-1.4961 9.8867-6.7383 9.8867-12.75v-23.152c0-8.5781-6.9805-15.559-15.559-15.559zm-100.53-16.348c0-3.3008 2.6836-5.9844 5.9844-5.9844h40.688c3.3008 0 5.9844 2.6836 5.9844 5.9844v16.348h-52.656zm36.391 92.227h-20.121v-20.121h20.121zm67.727-37.168c0 0.54688-0.37109 1.0234-0.89844 1.1602l-54.859 14.105v-4.2031c0-3.3047-2.6797-5.9844-5.9844-5.9844h-32.09c-3.3047 0-5.9844 2.6797-5.9844 5.9844v4.2031l-54.859-14.105c-0.52734-0.13672-0.89844-0.61328-0.89844-1.1602l-0.003906-23.152c0-1.9805 1.6094-3.5898 3.5898-3.5898h148.4c1.9805 0 3.5898 1.6094 3.5898 3.5898z"/>
  <path d="m170.43 184.29h-23.832c-8.5781 0-15.559-6.9766-15.559-15.559v-8.7148c-6.5273-2.5859-12.605-6.0625-18.137-10.379l-7.8594 4.4883c-7.3828 4.2148-16.871 1.6719-21.152-5.668l-11.836-20.285c-4.2656-7.3086-1.6484-17.141 5.7188-21.348l7.6328-4.3594c-0.97656-6.8359-0.97656-13.805 0-20.641l-7.6328-4.3594c-7.3477-4.1992-9.9961-14.023-5.7188-21.348l11.836-20.285c4.2812-7.3398 13.77-9.8828 21.152-5.668l7.8594 4.4883c5.5352-4.3164 11.609-7.793 18.137-10.379v-8.7148c0.003907-8.582 6.9805-15.559 15.559-15.559h23.832c8.5781 0 15.559 6.9766 15.559 15.559v8.7148c6.5273 2.5859 12.602 6.0625 18.137 10.379l7.8594-4.4883c7.3789-4.2148 16.871-1.6758 21.152 5.668l11.836 20.285c4.2656 7.3086 1.6484 17.141-5.7227 21.348l-7.6328 4.3594c0.97656 6.8359 0.97656 13.809 0 20.641l7.6328 4.3594c7.3672 4.2266 10.02 13.98 5.7227 21.348l-11.84 20.285c-4.2852 7.3398-13.773 9.8828-21.152 5.668l-7.8594-4.4883c-5.5352 4.3164-11.609 7.793-18.137 10.379v8.7148c0.003906 8.5781-6.9766 15.559-15.555 15.559zm-56.902-47.883c1.4219 0 2.8281 0.50391 3.9453 1.4844 6.2812 5.5078 13.492 9.6289 21.43 12.25 2.4531 0.80859 4.1094 3.1016 4.1094 5.6797v12.906c0 1.9805 1.6094 3.5898 3.5898 3.5898h23.832c1.9805 0 3.5898-1.6094 3.5898-3.5898v-12.906c0-2.582 1.6562-4.8711 4.1094-5.6797 7.9375-2.6211 15.148-6.7422 21.43-12.25 1.918-1.6836 4.6953-1.9648 6.9141-0.69922l11.453 6.543c1.7031 0.97266 3.8945 0.38672 4.8789-1.3086l11.84-20.285c0.92969-2.0078 0.48828-3.6523-1.3203-4.9258l-11.273-6.4414c-2.2461-1.2812-3.4141-3.8633-2.8945-6.3984 1.6523-8.043 1.6523-16.422 0-24.465-0.51953-2.5352 0.64844-5.1172 2.8945-6.3984l11.273-6.4414c1.8086-1.2773 2.25-2.918 1.3203-4.9258l-11.84-20.285c-0.98828-1.6914-3.1758-2.2812-4.8828-1.3086l-11.453 6.5391c-2.2188 1.2656-4.9922 0.98438-6.9141-0.69922-6.2812-5.5078-13.492-9.6289-21.43-12.25-2.4531-0.80859-4.1094-3.1016-4.1094-5.6797v-12.902c0-1.9805-1.6094-3.5898-3.5898-3.5898h-23.832c-1.9805 0-3.5898 1.6094-3.5898 3.5898v12.906c0 2.582-1.6562 4.8711-4.1094 5.6797-7.9375 2.6211-15.148 6.7422-21.43 12.25-1.918 1.6836-4.6992 1.9648-6.9141 0.69922l-11.453-6.543c-1.7031-0.97266-3.8945-0.38281-4.8828 1.3086l-11.836 20.285c-0.92969 2.0078-0.48828 3.6523 1.3203 4.9258l11.273 6.4414c2.2461 1.2812 3.4141 3.8633 2.8945 6.3984-1.6523 8.043-1.6523 16.418 0 24.465 0.51953 2.5352-0.64844 5.1172-2.8945 6.3984l-11.273 6.4414c-1.8086 1.2773-2.25 2.918-1.3203 4.9258l11.836 20.285c0.98828 1.6953 3.1797 2.2812 4.8828 1.3086l11.453-6.5391c0.92969-0.52734 1.9531-0.78906 2.9727-0.78906z"/>
  <path d="m180.16 133.21c-1.7695 0-3.5469-0.44141-5.1758-1.3359l-16.473-9.0078-16.473 9.0078c-7.6328 4.1719-17.223-2.5352-15.793-11.203l3.2461-19.691-13.887-14.074c-5.9883-6.0742-2.4531-16.926 6.0586-18.211l18.82-2.8438 8.293-17.477c3.7734-7.9492 15.652-8.0273 19.461 0l8.293 17.477 18.82 2.8438c8.4336 1.2734 12.102 12.082 6.0586 18.211l-13.879 14.078 3.2461 19.691c1.0469 6.3594-4.1875 12.535-10.617 12.535zm-54.383-53.035 14.375 14.574c1.3438 1.3633 1.957 3.2852 1.6445 5.1758l-3.3438 20.273 17.188-9.3984c1.7891-0.98047 3.9531-0.97656 5.7422 0l17.188 9.3984-3.3438-20.273c-0.3125-1.8867 0.30078-3.8125 1.6445-5.1758l14.375-14.574-19.648-2.9688c-1.9688-0.29688-3.6602-1.5547-4.5117-3.3516l-8.5781-18.074-8.5742 18.07c-0.85156 1.7969-2.543 3.0547-4.5117 3.3516z"/>
  <path d="m215.93 317.12c-32.996 0-59.836-26.84-59.836-59.832 0-32.992 26.844-59.832 59.836-59.832 32.992 0 59.836 26.84 59.836 59.832 0 32.988-26.84 59.832-59.836 59.832zm0-107.7c-26.395 0-47.871 21.473-47.871 47.867 0 26.395 21.473 47.867 47.871 47.867 26.395 0 47.871-21.473 47.871-47.867 0-26.395-21.477-47.867-47.871-47.867z"/>
  <path d="m206.73 281.15c-1.6758 0-3.1953-0.70313-4.5547-2.1016l-13.789-16.18c-2.1445-2.5156-1.8398-6.293 0.67188-8.4336 2.5156-2.1445 6.293-1.8438 8.4336 0.67188l9.3555 10.98 27.613-30.68c2.2109-2.457 5.9961-2.6562 8.4492-0.44531 2.457 2.2109 2.6562 5.9922 0.44531 8.4492l-32.184 35.758c-1.1289 1.2617-2.7461 1.9805-4.4414 1.9805z"/>
  <use x="70" y="577.949219" xlink:href="#u"/>
  <use x="74.390625" y="577.949219" xlink:href="#c"/>
  <use x="77.339844" y="577.949219" xlink:href="#a"/>
  <use x="81.398438" y="577.949219" xlink:href="#i"/>
  <use x="85.4375" y="577.949219" xlink:href="#b"/>
  <use x="88.296875" y="577.949219" xlink:href="#a"/>
  <use x="92.355469" y="577.949219" xlink:href="#h"/>
  <use x="98.71875" y="577.949219" xlink:href="#g"/>
  <use x="103.003906" y="577.949219" xlink:href="#f"/>
  <use x="108.984375" y="577.949219" xlink:href="#e"/>
  <use x="113.292969" y="577.949219" xlink:href="#t"/>
  <use x="117.855469" y="577.949219" xlink:href="#s"/>
  <use x="121.9375" y="577.949219" xlink:href="#e"/>
  <use x="70" y="583.929688" xlink:href="#r"/>
  <use x="72.601562" y="583.929688" xlink:href="#c"/>
  <use x="75.554688" y="583.929688" xlink:href="#d"/>
  <use x="79.664062" y="583.929688" xlink:href="#q"/>
  <use x="87.980469" y="583.929688" xlink:href="#b"/>
  <use x="90.839844" y="583.929688" xlink:href="#p"/>
  <use x="95.101562" y="583.929688" xlink:href="#a"/>
  <use x="101.242188" y="583.929688" xlink:href="#o"/>
  <use x="106.246094" y="583.929688" xlink:href="#d"/>
  <use x="110.359375" y="583.929688" xlink:href="#n"/>
  <use x="114.617188" y="583.929688" xlink:href="#m"/>
  <use x="120.960938" y="583.929688" xlink:href="#l"/>
  <use x="125.34375" y="583.929688" xlink:href="#c"/>
  <use x="128.296875" y="583.929688" xlink:href="#d"/>
  <use x="132.40625" y="583.929688" xlink:href="#k"/>
  <use x="134.457031" y="583.929688" xlink:href="#a"/>
  <use x="138.515625" y="583.929688" xlink:href="#j"/>
  <use x="142.0625" y="583.929688" xlink:href="#b"/>
 </g>
</svg>
