<!-- Generated by IcoMoon.io -->
<svg version="1.1" xmlns="http://www.w3.org/2000/svg" width="32" height="32" viewBox="0 0 32 32">
<title>document</title>
<path d="M9.726 16.784c0-0.208 0.083-0.408 0.23-0.555s0.347-0.23 0.555-0.23c0.208 0 0.408 0.083 0.555 0.23s0.23 0.347 0.23 0.555c0 0.208-0.083 0.408-0.23 0.555s-0.347 0.23-0.555 0.23c-0.208 0-0.408-0.083-0.555-0.23s-0.23-0.347-0.23-0.555zM10.51 19.137c-0.208 0-0.408 0.083-0.555 0.23s-0.23 0.347-0.23 0.555c0 0.208 0.083 0.408 0.23 0.555s0.347 0.23 0.555 0.23c0.208 0 0.408-0.083 0.555-0.23s0.23-0.347 0.23-0.555c0-0.208-0.083-0.408-0.23-0.555s-0.347-0.23-0.555-0.23zM9.726 23.059c0-0.208 0.083-0.408 0.23-0.555s0.347-0.23 0.555-0.23c0.208 0 0.408 0.083 0.555 0.23s0.23 0.347 0.23 0.555c0 0.208-0.083 0.408-0.23 0.555s-0.347 0.23-0.555 0.23c-0.208 0-0.408-0.083-0.555-0.23s-0.23-0.347-0.23-0.555zM13.647 16c-0.208 0-0.408 0.083-0.555 0.23s-0.23 0.347-0.23 0.555c0 0.208 0.083 0.408 0.23 0.555s0.347 0.23 0.555 0.23h7.843c0.208 0 0.408-0.083 0.555-0.23s0.23-0.347 0.23-0.555c0-0.208-0.083-0.408-0.23-0.555s-0.347-0.23-0.555-0.23h-7.843zM12.863 19.922c0-0.208 0.083-0.408 0.23-0.555s0.347-0.23 0.555-0.23h7.843c0.208 0 0.408 0.083 0.555 0.23s0.23 0.347 0.23 0.555c0 0.208-0.083 0.408-0.23 0.555s-0.347 0.23-0.555 0.23h-7.843c-0.208 0-0.408-0.083-0.555-0.23s-0.23-0.347-0.23-0.555zM13.647 22.274c-0.208 0-0.408 0.083-0.555 0.23s-0.23 0.347-0.23 0.555c0 0.208 0.083 0.408 0.23 0.555s0.347 0.23 0.555 0.23h7.843c0.208 0 0.408-0.083 0.555-0.23s0.23-0.347 0.23-0.555c0-0.208-0.083-0.408-0.23-0.555s-0.347-0.23-0.555-0.23h-7.843zM9.726 3.451c-0.832 0-1.63 0.331-2.218 0.919s-0.919 1.386-0.919 2.218v18.824c0 0.832 0.331 1.63 0.919 2.218s1.386 0.919 2.218 0.919h12.549c0.832 0 1.63-0.331 2.218-0.919s0.919-1.386 0.919-2.218v-13.468c-0.001-0.624-0.249-1.222-0.69-1.663l-6.14-6.141c-0.441-0.441-1.039-0.688-1.663-0.689h-7.194zM8.157 6.588c0-0.416 0.165-0.815 0.459-1.109s0.693-0.459 1.109-0.459h6.274v5.49c0 0.624 0.248 1.223 0.689 1.664s1.040 0.689 1.664 0.689h5.49v12.549c0 0.416-0.165 0.815-0.459 1.109s-0.693 0.459-1.109 0.459h-12.549c-0.416 0-0.815-0.165-1.109-0.459s-0.459-0.693-0.459-1.109v-18.824zM23.518 11.294h-5.165c-0.208 0-0.408-0.083-0.555-0.23s-0.23-0.347-0.23-0.555v-5.165l5.95 5.95z"></path>
</svg>
