<!-- Generated by IcoMoon.io -->
<svg version="1.1" xmlns="http://www.w3.org/2000/svg" width="31" height="32" viewBox="0 0 31 32">
<title>pay</title>
<path d="M18.306 13.669c-0.124-0.001-0.244 0.048-0.333 0.137s-0.14 0.209-0.141 0.335v3.524c0.002 0.127 0.053 0.247 0.142 0.336s0.209 0.137 0.334 0.136h10.452c0.125 0.001 0.245-0.048 0.334-0.136s0.14-0.209 0.142-0.336v-3.524c-0.002-0.127-0.053-0.247-0.142-0.335s-0.209-0.137-0.334-0.136h-10.453zM24.715 2.46c1.446 0.070 2.486 0.36 3.145 0.975 0.651 0.609 0.985 1.49 1.051 2.656v3.341c-0.003 0.285-0.118 0.556-0.318 0.755s-0.47 0.309-0.75 0.306c-0.139 0.002-0.277-0.024-0.406-0.077s-0.246-0.13-0.346-0.229c-0.099-0.098-0.179-0.216-0.233-0.346s-0.084-0.269-0.085-0.41l0.002-3.28c-0.035-0.605-0.177-0.981-0.381-1.173-0.198-0.185-0.8-0.351-1.73-0.398h-20.511c-0.842 0.032-1.39 0.194-1.655 0.425-0.204 0.177-0.358 0.664-0.359 1.507l-0.005 18.751c0.078 0.819 0.256 1.365 0.483 1.638 0.173 0.207 0.707 0.414 1.495 0.516h20.574c0.963 0.019 1.531-0.128 1.722-0.323 0.212-0.218 0.366-0.792 0.366-1.73v-3.258c0-0.585 0.478-1.061 1.070-1.061 0.59 0 1.068 0.476 1.068 1.061v3.258c0 1.434-0.289 2.506-0.965 3.202-0.696 0.717-1.804 1.004-3.283 0.972l-20.679-0.005c-1.407-0.166-2.416-0.558-3.016-1.279-0.544-0.653-0.847-1.585-0.968-2.888v-18.855c0.003-1.396 0.333-2.445 1.089-3.102 0.693-0.605 1.694-0.9 3.023-0.951l20.604 0.002zM28.759 11.547c1.443 0 2.613 1.161 2.613 2.594v3.524c0 1.432-1.17 2.594-2.613 2.594h-10.452c-1.443 0-2.613-1.163-2.613-2.594v-3.524c0-1.432 1.17-2.594 2.613-2.594h10.452zM20.921 14.638c-0.722 0-1.307 0.574-1.307 1.279 0 0.707 0.585 1.279 1.307 1.279s1.307-0.573 1.307-1.279c0-0.707-0.585-1.281-1.307-1.281v0.002z"></path>
</svg>
