<!-- Generated by IcoMoon.io -->
<svg version="1.1" xmlns="http://www.w3.org/2000/svg" width="32" height="32" viewBox="0 0 32 32">
<title>tel</title>
<path d="M17.271 13.149l9.102-8.974h-6.451v-1.931h9.804v9.653h-1.961v-6.352l-9.114 8.964-1.38-1.359v-0.002zM23.751 18.097c0.809 0 1.586 0.314 2.161 0.875 0.216 0.212 0.455 0.432 0.72 0.664l0.843 0.739c0.294 0.261 0.571 0.533 0.825 0.813 0.255 0.282 0.496 0.57 0.722 0.861 0.224 0.29 0.392 0.602 0.504 0.934 0.114 0.332 0.18 0.664 0.2 0.996-0.001 0.796-0.32 1.56-0.888 2.126-0.522 0.514-0.99 0.965-1.41 1.359-0.397 0.375-0.834 0.709-1.302 0.994-0.451 0.27-0.955 0.473-1.516 0.604-0.649 0.14-1.312 0.211-1.976 0.21-1.163-0.008-2.319-0.181-3.431-0.514-1.214-0.357-2.39-0.832-3.51-1.417-1.197-0.624-2.339-1.346-3.414-2.157-1.116-0.836-2.171-1.749-3.157-2.73-0.99-0.985-1.91-2.027-2.757-3.122-0.819-1.052-1.542-2.172-2.161-3.35-0.575-1.096-1.047-2.242-1.408-3.423-0.337-1.075-0.512-2.193-0.522-3.319 0-0.765 0.067-1.417 0.2-1.962 0.124-0.521 0.33-1.019 0.612-1.477 0.275-0.444 0.614-0.869 1.012-1.282s0.863-0.88 1.392-1.404c0.576-0.561 1.353-0.875 2.163-0.875 0.51 0 1 0.135 1.471 0.405 0.471 0.274 0.925 0.604 1.365 0.998 0.437 0.392 0.843 0.803 1.21 1.236s0.714 0.805 1.039 1.116c0.569 0.566 0.888 1.331 0.888 2.128 0.007 0.361-0.060 0.72-0.196 1.056-0.124 0.297-0.289 0.577-0.49 0.83-0.196 0.243-0.412 0.469-0.645 0.678-0.235 0.212-0.449 0.413-0.643 0.604-0.18 0.175-0.349 0.362-0.506 0.558-0.139 0.17-0.209 0.384-0.198 0.602 0 0.122 0.092 0.313 0.274 0.573 0.237 0.326 0.493 0.638 0.767 0.934 0.762 0.842 1.554 1.658 2.375 2.444 0.459 0.444 0.904 0.869 1.333 1.282 0.427 0.413 0.843 0.805 1.241 1.178 0.398 0.371 0.735 0.687 1.010 0.95 0.274 0.261 0.49 0.463 0.643 0.602 0.175 0.178 0.409 0.289 0.659 0.311s0.501-0.045 0.705-0.189c0.182-0.131 0.373-0.293 0.567-0.483 0.194-0.193 0.392-0.404 0.596-0.635s0.439-0.442 0.706-0.633c0.265-0.191 0.545-0.357 0.843-0.498 0.341-0.148 0.714-0.215 1.086-0.195h-0.002zM22.633 27.342c0.623 0 1.143-0.056 1.563-0.166 0.409-0.107 0.798-0.28 1.149-0.514 0.347-0.232 0.673-0.502 0.98-0.813 0.306-0.313 0.678-0.68 1.118-1.1 0.216-0.212 0.322-0.463 0.322-0.755 0-0.131-0.082-0.317-0.245-0.56-0.193-0.279-0.398-0.551-0.614-0.813-0.261-0.32-0.543-0.623-0.843-0.907-0.314-0.299-0.622-0.577-0.918-0.828-0.258-0.222-0.529-0.428-0.812-0.618-0.245-0.16-0.439-0.241-0.582-0.241-0.219 0.002-0.433 0.070-0.612 0.195-0.206 0.141-0.397 0.302-0.569 0.483-0.182 0.193-0.382 0.404-0.596 0.635-0.216 0.232-0.451 0.442-0.706 0.633s-0.535 0.357-0.843 0.498c-0.337 0.146-0.703 0.213-1.071 0.195-0.402 0.003-0.801-0.075-1.172-0.227s-0.707-0.377-0.989-0.661l-7.306-7.197c-0.282-0.276-0.506-0.604-0.659-0.965-0.155-0.369-0.238-0.763-0.245-1.162 0-0.392 0.067-0.739 0.198-1.041 0.133-0.301 0.296-0.583 0.49-0.846 0.196-0.261 0.41-0.487 0.645-0.678s0.449-0.392 0.643-0.604c0.194-0.21 0.363-0.396 0.506-0.558 0.144-0.167 0.216-0.384 0.198-0.602 0-0.131-0.082-0.317-0.245-0.56-0.19-0.276-0.394-0.542-0.612-0.797-0.267-0.315-0.548-0.617-0.843-0.905-0.293-0.291-0.6-0.568-0.92-0.83-0.266-0.218-0.542-0.425-0.827-0.618-0.255-0.172-0.443-0.251-0.567-0.241-0.145-0.003-0.289 0.024-0.424 0.079s-0.256 0.135-0.357 0.238c-0.37 0.365-0.743 0.727-1.118 1.087-0.31 0.292-0.587 0.615-0.827 0.965-0.232 0.346-0.403 0.729-0.506 1.131-0.122 0.499-0.184 1.010-0.184 1.523 0 0.965 0.157 1.96 0.474 2.985 0.337 1.075 0.779 2.116 1.318 3.108 0.563 1.044 1.235 2.062 2.022 3.047s1.629 1.925 2.529 2.819c1.762 1.756 3.774 3.25 5.973 4.437 0.989 0.531 2.031 0.961 3.11 1.282 0.964 0.291 1.964 0.448 2.973 0.467v0.002z"></path>
</svg>
