<svg width="314" height="404" viewBox="0 0 314 404" fill="none" xmlns="http://www.w3.org/2000/svg">
<path d="M50.6 0.397949C22.87 0.397949 0.197998 23.07 0.197998 50.7999V347.6C0.197998 353.784 5.2136 358.799 11.397 358.799H151.397V392.397C151.393 396.549 153.686 400.366 157.354 402.307C161.022 404.252 165.467 404.006 168.897 401.674L196.198 383.475L223.499 401.674C226.933 404.006 231.374 404.252 235.042 402.307C238.71 400.366 241.003 396.549 240.999 392.397V358.799H280.198C286.385 358.799 291.397 353.783 291.397 347.6V89.9999H302.6C308.784 89.9999 313.799 84.9843 313.799 78.8009V50.8009C313.799 23.0709 291.127 0.398949 263.397 0.398949L50.6 0.397949ZM50.6 22.7999H53.225C53.682 22.9445 54.1508 23.0617 54.6234 23.1476C68.2754 25.0656 78.6004 36.4526 78.6004 50.7996V78.7996C78.6004 84.9832 83.6121 89.9986 89.7994 89.9986H268.999V336.399H240.999V325.024C248.003 315.676 252.198 304.11 252.198 291.602C252.198 260.805 226.995 235.602 196.198 235.602C165.405 235.602 140.198 260.805 140.198 291.602C140.198 304.11 144.394 315.676 151.397 325.024V336.399H22.5974V50.7986C22.5974 35.0916 34.8904 22.7986 50.5974 22.7986L50.6 22.7999ZM91.725 22.7999H263.395C279.102 22.7999 291.395 35.0929 291.395 50.7999V67.6009H100.995V50.7999C100.995 40.2879 97.2645 30.9019 91.7216 22.7999H91.725ZM49.549 106.8C46.5763 106.937 43.7834 108.253 41.7795 110.448C39.7795 112.648 38.7326 115.554 38.8693 118.523C39.0099 121.495 40.3224 124.288 42.5216 126.292C44.7208 128.292 47.6271 129.339 50.5997 129.198H241C243.996 129.241 246.886 128.081 249.023 125.976C251.156 123.87 252.359 120.999 252.359 117.999C252.359 114.999 251.156 112.128 249.023 110.022C246.886 107.917 243.996 106.757 241 106.8H50.5997C50.2481 106.784 49.8966 106.784 49.5489 106.8L49.549 106.8ZM49.549 145.999C46.5763 146.136 43.7834 147.452 41.7795 149.651C39.7795 151.85 38.7326 154.753 38.8693 157.725C39.0099 160.694 40.3224 163.487 42.5216 165.491C44.7208 167.491 47.6271 168.538 50.5997 168.397H241C243.996 168.44 246.886 167.28 249.023 165.175C251.156 163.069 252.359 160.198 252.359 157.198C252.359 154.202 251.156 151.327 249.023 149.221C246.886 147.116 243.996 145.956 241 145.999H50.5997C50.2481 145.983 49.8966 145.983 49.5489 145.999L49.549 145.999ZM49.549 185.198C46.5763 185.339 43.7834 186.651 41.7795 188.85C39.7795 191.049 38.7326 193.952 38.8693 196.924C39.0099 199.893 40.3224 202.69 42.5216 204.69C44.7208 206.694 47.6271 207.737 50.5997 207.6H241C243.996 207.639 246.886 206.479 249.023 204.374C251.156 202.268 252.359 199.397 252.359 196.397C252.359 193.401 251.156 190.526 249.023 188.424C246.886 186.319 243.996 185.155 241 185.198H50.5997C50.2481 185.182 49.8966 185.182 49.5489 185.198L49.549 185.198ZM49.549 224.397C46.5763 224.538 43.7834 225.85 41.7795 228.049C39.7795 230.248 38.7326 233.151 38.8693 236.123C39.0099 239.096 40.3224 241.889 42.5216 243.889C44.7208 245.893 47.6271 246.94 50.5997 246.799H128.998C131.994 246.842 134.884 245.678 137.021 243.573C139.154 241.471 140.357 238.596 140.357 235.6C140.357 232.6 139.154 229.729 137.021 227.623C134.884 225.518 131.994 224.358 128.998 224.397H50.5997C50.2481 224.381 49.8966 224.381 49.5489 224.397L49.549 224.397ZM196.199 257.999C214.89 257.999 229.801 272.909 229.801 291.601C229.801 310.289 214.891 325.199 196.199 325.199C177.511 325.199 162.601 310.289 162.601 291.601C162.601 272.91 177.511 257.999 196.199 257.999ZM173.801 342.874C180.684 345.913 188.227 347.601 196.199 347.601C204.172 347.601 211.715 345.913 218.601 342.874V371.397L202.499 360.725C198.698 358.139 193.702 358.139 189.897 360.725L173.799 371.397L173.801 342.874Z" fill="black"/>
</svg>
