<svg width="51" height="50" viewBox="0 0 51 50" fill="none" xmlns="http://www.w3.org/2000/svg">
<path d="M15.5 26.25C15.5 25.9185 15.6317 25.6005 15.8661 25.3661C16.1005 25.1317 16.4185 25 16.75 25C17.0815 25 17.3995 25.1317 17.6339 25.3661C17.8683 25.6005 18 25.9185 18 26.25C18 26.5815 17.8683 26.8995 17.6339 27.1339C17.3995 27.3683 17.0815 27.5 16.75 27.5C16.4185 27.5 16.1005 27.3683 15.8661 27.1339C15.6317 26.8995 15.5 26.5815 15.5 26.25ZM16.75 30C16.4185 30 16.1005 30.1317 15.8661 30.3661C15.6317 30.6005 15.5 30.9185 15.5 31.25C15.5 31.5815 15.6317 31.8995 15.8661 32.1339C16.1005 32.3683 16.4185 32.5 16.75 32.5C17.0815 32.5 17.3995 32.3683 17.6339 32.1339C17.8683 31.8995 18 31.5815 18 31.25C18 30.9185 17.8683 30.6005 17.6339 30.3661C17.3995 30.1317 17.0815 30 16.75 30ZM15.5 36.25C15.5 35.9185 15.6317 35.6005 15.8661 35.3661C16.1005 35.1317 16.4185 35 16.75 35C17.0815 35 17.3995 35.1317 17.6339 35.3661C17.8683 35.6005 18 35.9185 18 36.25C18 36.5815 17.8683 36.8995 17.6339 37.1339C17.3995 37.3683 17.0815 37.5 16.75 37.5C16.4185 37.5 16.1005 37.3683 15.8661 37.1339C15.6317 36.8995 15.5 36.5815 15.5 36.25ZM21.75 25C21.4185 25 21.1005 25.1317 20.8661 25.3661C20.6317 25.6005 20.5 25.9185 20.5 26.25C20.5 26.5815 20.6317 26.8995 20.8661 27.1339C21.1005 27.3683 21.4185 27.5 21.75 27.5H34.25C34.5815 27.5 34.8995 27.3683 35.1339 27.1339C35.3683 26.8995 35.5 26.5815 35.5 26.25C35.5 25.9185 35.3683 25.6005 35.1339 25.3661C34.8995 25.1317 34.5815 25 34.25 25H21.75ZM20.5 31.25C20.5 30.9185 20.6317 30.6005 20.8661 30.3661C21.1005 30.1317 21.4185 30 21.75 30H34.25C34.5815 30 34.8995 30.1317 35.1339 30.3661C35.3683 30.6005 35.5 30.9185 35.5 31.25C35.5 31.5815 35.3683 31.8995 35.1339 32.1339C34.8995 32.3683 34.5815 32.5 34.25 32.5H21.75C21.4185 32.5 21.1005 32.3683 20.8661 32.1339C20.6317 31.8995 20.5 31.5815 20.5 31.25ZM21.75 35C21.4185 35 21.1005 35.1317 20.8661 35.3661C20.6317 35.6005 20.5 35.9185 20.5 36.25C20.5 36.5815 20.6317 36.8995 20.8661 37.1339C21.1005 37.3683 21.4185 37.5 21.75 37.5H34.25C34.5815 37.5 34.8995 37.3683 35.1339 37.1339C35.3683 36.8995 35.5 36.5815 35.5 36.25C35.5 35.9185 35.3683 35.6005 35.1339 35.3661C34.8995 35.1317 34.5815 35 34.25 35H21.75ZM15.5 5C14.1739 5 12.9021 5.52678 11.9645 6.46447C11.0268 7.40215 10.5 8.67392 10.5 10V40C10.5 41.3261 11.0268 42.5979 11.9645 43.5355C12.9021 44.4732 14.1739 45 15.5 45H35.5C36.8261 45 38.0978 44.4732 39.0355 43.5355C39.9732 42.5979 40.5 41.3261 40.5 40V18.535C40.4991 17.5408 40.1035 16.5876 39.4 15.885L29.615 6.0975C28.912 5.39495 27.9589 5.00021 26.965 5H15.5ZM13 10C13 9.33696 13.2634 8.70107 13.7322 8.23223C14.2011 7.76339 14.837 7.5 15.5 7.5H25.5V16.25C25.5 17.2446 25.8951 18.1984 26.5983 18.9017C27.3016 19.6049 28.2554 20 29.25 20H38V40C38 40.663 37.7366 41.2989 37.2678 41.7678C36.7989 42.2366 36.163 42.5 35.5 42.5H15.5C14.837 42.5 14.2011 42.2366 13.7322 41.7678C13.2634 41.2989 13 40.663 13 40V10ZM37.4825 17.5H29.25C28.9185 17.5 28.6005 17.3683 28.3661 17.1339C28.1317 16.8995 28 16.5815 28 16.25V8.0175L37.4825 17.5Z" fill="black"/>
</svg>
