<svg width="51" height="50" viewBox="0 0 51 50" fill="none" xmlns="http://www.w3.org/2000/svg">
<path d="M25.5 4.16675C27.7917 4.16675 29.6667 6.04175 29.6667 8.33341C29.6667 10.6251 27.7917 12.5001 25.5 12.5001C23.2083 12.5001 21.3333 10.6251 21.3333 8.33341C21.3333 6.04175 23.2083 4.16675 25.5 4.16675ZM33.625 16.8751C32.7917 16.0417 31.3333 14.5834 28.625 14.5834H23.4167C17.5833 14.5834 13 10.0001 13 4.16675H8.83334C8.83334 10.8334 13.2083 16.2501 19.25 18.1251V45.8334H23.4167V33.3334H27.5833V45.8334H31.75V21.0417L40.0833 29.1667L43 26.2501L33.625 16.8751V16.8751Z" fill="black"/>
</svg>
