<svg width="50" height="51" viewBox="0 0 50 51" fill="none" xmlns="http://www.w3.org/2000/svg">
<path d="M29.175 21.7854C28.9769 21.784 28.7864 21.8623 28.645 22.0031C28.5035 22.1439 28.4226 22.3358 28.42 22.5369V28.1533C28.4226 28.3549 28.5038 28.5472 28.6458 28.6881C28.7878 28.829 28.979 28.9069 29.1775 28.9049H45.835C46.0335 28.9069 46.2247 28.829 46.3667 28.6881C46.5087 28.5472 46.5899 28.3549 46.5925 28.1533V22.5369C46.5899 22.3353 46.5087 22.143 46.3667 22.0022C46.2247 21.8613 46.0335 21.7833 45.835 21.7854H29.1775H29.175ZM39.39 3.92051C41.695 4.03223 43.3525 4.49434 44.4025 5.47441C45.44 6.44434 45.9725 7.84844 46.0775 9.70703V15.0314C46.0722 15.4849 45.89 15.9177 45.5708 16.2347C45.2515 16.5518 44.8215 16.7272 44.375 16.7225C44.1537 16.7251 43.9341 16.6835 43.7286 16.6C43.5232 16.5165 43.336 16.3927 43.1776 16.2356C43.0193 16.0786 42.893 15.8914 42.8059 15.6848C42.7188 15.4782 42.6726 15.2562 42.67 15.0314L42.6725 9.80352C42.6175 8.83867 42.39 8.23945 42.065 7.93477C41.75 7.64023 40.79 7.37617 39.3075 7.3H6.6175C5.275 7.35078 4.4025 7.60977 3.98 7.97793C3.655 8.25977 3.41 9.03672 3.4075 10.3799L3.4 40.2646C3.525 41.5697 3.8075 42.4406 4.17 42.8748C4.445 43.2049 5.2975 43.535 6.5525 43.6975H39.3425C40.8775 43.7279 41.7825 43.4943 42.0875 43.182C42.425 42.8342 42.67 41.9201 42.67 40.4246V35.2322C42.67 34.3004 43.4325 33.5412 44.375 33.5412C45.315 33.5412 46.0775 34.3004 46.0775 35.2322V40.4246C46.0775 42.7098 45.6175 44.4186 44.54 45.5281C43.43 46.6707 41.665 47.1277 39.3075 47.077L6.35 47.0693C4.1075 46.8053 2.5 46.1807 1.5425 45.0305C0.675 43.9895 0.1925 42.5041 0 40.4271V10.3773C0.005 8.15313 0.53 6.47988 1.735 5.43379C2.84 4.46895 4.435 3.99922 6.5525 3.91797H39.39V3.92051ZM45.835 18.4033C48.135 18.4033 50 20.2543 50 22.5369V28.1533C50 30.4359 48.135 32.2869 45.835 32.2869H29.1775C26.8775 32.2869 25.0125 30.4334 25.0125 28.1533V22.5369C25.0125 20.2543 26.8775 18.4033 29.1775 18.4033H45.835V18.4033ZM33.3425 23.3291C32.1925 23.3291 31.26 24.2432 31.26 25.368C31.26 26.4953 32.1925 27.4068 33.3425 27.4068C34.4925 27.4068 35.425 26.4928 35.425 25.368C35.425 24.2406 34.4925 23.3266 33.3425 23.3266V23.3291Z" fill="black"/>
</svg>
