<svg width="701" height="700" viewBox="0 0 701 700" fill="none" xmlns="http://www.w3.org/2000/svg">
<path d="M143.029 19.0849H557.97C568.723 19.0849 578.496 23.4879 585.581 30.5668C592.7 37.6455 597.103 47.4443 597.103 58.2118V641.788C597.103 652.54 592.7 662.314 585.621 669.399C578.492 676.517 568.718 680.92 557.966 680.92H143.024C132.282 680.92 122.507 676.517 115.419 669.438C108.3 662.31 103.897 652.521 103.897 641.783V58.2069C103.897 47.4398 108.3 37.6403 115.379 30.562L116.059 29.9415C123.088 23.225 132.6 19.0801 143.024 19.0801L143.029 19.0849ZM172.198 346.608C168.237 342.264 168.559 335.523 172.903 331.562C177.246 327.6 183.988 327.923 187.949 332.267L198.388 343.709L225 309.799C228.629 305.177 235.345 304.378 239.971 308.007C244.593 311.635 245.392 318.352 241.764 322.978L207.392 366.776L206.181 368.062C201.837 372.023 195.096 371.7 191.135 367.357L172.197 346.602L172.198 346.608ZM172.198 99.196C168.237 94.8524 168.559 88.1112 172.903 84.1498C177.246 80.1884 183.988 80.5111 187.949 84.8547L198.388 96.2968L225 62.3868C228.629 57.7653 235.345 56.9661 239.971 60.5948C244.593 64.2235 245.392 70.9398 241.764 75.566L207.392 119.364L206.181 120.65C201.837 124.611 195.096 124.288 191.135 119.945L172.197 99.1902L172.198 99.196ZM271.255 101.559C265.363 101.559 260.583 96.7786 260.583 90.8863C260.583 84.994 265.363 80.2136 271.255 80.2136H520.942C526.834 80.2136 531.615 84.994 531.615 90.8863C531.615 96.7786 526.834 101.559 520.942 101.559H271.255ZM172.198 594.044C168.237 589.701 168.559 582.96 172.903 578.998C177.246 575.037 183.988 575.359 187.949 579.703L198.388 591.145L225 557.235C228.629 552.614 235.345 551.814 239.971 555.443C244.593 559.072 245.392 565.788 241.764 570.414L207.392 614.212L206.181 615.498C201.837 619.459 195.096 619.137 191.135 614.793L172.197 594.039L172.198 594.044ZM271.255 596.407C265.363 596.407 260.583 591.627 260.583 585.735C260.583 579.842 265.363 575.062 271.255 575.062H520.942C526.834 575.062 531.615 579.842 531.615 585.735C531.615 591.627 526.834 596.407 520.942 596.407H271.255ZM172.198 511.571C168.237 507.228 168.559 500.486 172.903 496.525C177.246 492.564 183.988 492.886 187.949 497.23L198.388 508.677L225 474.762C228.629 470.14 235.345 469.341 239.971 472.97C244.593 476.599 245.392 483.315 241.764 487.941L207.392 531.749L206.181 533.035C201.837 536.996 195.096 536.674 191.135 532.33L172.198 511.571ZM271.255 513.939C265.363 513.939 260.583 509.159 260.583 503.266C260.583 497.374 265.363 492.594 271.255 492.594H520.942C526.834 492.594 531.615 497.374 531.615 503.266C531.615 509.159 526.834 513.939 520.942 513.939H271.255ZM172.198 429.093C168.237 424.749 168.559 418.008 172.903 414.047C177.246 410.085 183.988 410.408 187.949 414.752L198.388 426.194L225 392.284C228.629 387.662 235.345 386.863 239.971 390.492C244.593 394.121 245.392 400.837 241.764 405.463L207.392 449.261L206.181 450.547C201.837 454.508 195.096 454.185 191.135 449.842L172.197 429.087L172.198 429.093ZM271.255 431.456C265.363 431.456 260.583 426.676 260.583 420.783C260.583 414.891 265.363 410.111 271.255 410.111H520.942C526.834 410.111 531.615 414.891 531.615 420.783C531.615 426.676 526.834 431.456 520.942 431.456H271.255ZM172.198 181.668C168.237 177.324 168.559 170.583 172.903 166.621C177.246 162.66 183.988 162.983 187.949 167.326L198.388 178.768L225 144.859C228.629 140.237 235.345 139.438 239.971 143.066C244.593 146.695 245.392 153.411 241.764 158.038L207.392 201.836L206.181 203.121C201.837 207.083 195.096 206.76 191.135 202.417L172.197 181.662L172.198 181.668ZM271.255 184.031C265.363 184.031 260.583 179.25 260.583 173.358C260.583 167.466 265.363 162.685 271.255 162.685H520.942C526.834 162.685 531.615 167.466 531.615 173.358C531.615 179.25 526.834 184.031 520.942 184.031H271.255ZM172.198 264.151C168.237 259.807 168.559 253.066 172.903 249.104C177.246 245.143 183.988 245.466 187.949 249.809L198.388 261.251L225 227.341C228.629 222.72 235.345 221.921 239.971 225.549C244.593 229.178 245.392 235.894 241.764 240.521L207.392 284.319L206.181 285.604C201.837 289.566 195.096 289.243 191.135 284.9L172.197 264.145L172.198 264.151ZM271.255 266.514C265.363 266.514 260.583 261.733 260.583 255.841C260.583 249.949 265.363 245.168 271.255 245.168H520.942C526.834 245.168 531.615 249.949 531.615 255.841C531.615 261.733 526.834 266.514 520.942 266.514H271.255ZM271.255 348.977C265.363 348.977 260.583 344.197 260.583 338.304C260.583 332.412 265.363 327.632 271.255 327.632H520.942C526.834 327.632 531.615 332.412 531.615 338.304C531.615 344.197 526.834 348.977 520.942 348.977H271.255ZM557.973 40.4398H143.032C138.361 40.4398 134.086 42.2616 130.905 45.2201L130.483 45.6669C127.261 48.8886 125.255 53.3414 125.255 58.216V641.792C125.255 646.682 127.256 651.15 130.468 654.366C133.689 657.578 138.142 659.579 143.032 659.579H557.973C562.873 659.579 567.33 657.578 570.547 654.366C573.759 651.144 575.759 646.692 575.759 641.792V58.216C575.759 53.3414 573.749 48.8886 570.532 45.6669C567.33 42.4402 562.873 40.4397 557.973 40.4397L557.973 40.4398Z" fill="black"/>
</svg>
