<svg width="51" height="50" viewBox="0 0 51 50" fill="none" xmlns="http://www.w3.org/2000/svg">
<path d="M27.525 20.4554L42.0312 6.15383H31.75V3.07691H47.375V18.4615H44.25V8.33844L29.725 22.6246L27.525 20.4584V20.4554ZM37.8531 28.3415C39.1427 28.3416 40.3801 28.8424 41.2969 29.7354C41.6406 30.0738 42.0219 30.4246 42.4437 30.7938L43.7875 31.9723C44.2563 32.3877 44.6969 32.8215 45.1031 33.2677C45.5094 33.7169 45.8937 34.1754 46.2531 34.64C46.6094 35.1015 46.8781 35.6 47.0562 36.1292C47.2375 36.6584 47.3438 37.1877 47.375 37.7169C47.3738 38.9855 46.8652 40.2025 45.9594 41.1046C45.1281 41.9231 44.3813 42.6431 43.7125 43.2708C43.0792 43.8691 42.3837 44.4002 41.6375 44.8554C40.9187 45.2861 40.1156 45.6092 39.2219 45.8184C38.1872 46.0418 37.1311 46.1543 36.0719 46.1538C34.2184 46.1418 32.3765 45.8661 30.6031 45.3354C28.6676 44.7657 26.7939 44.0092 25.0094 43.0769C23.1021 42.0819 21.2823 40.9323 19.5688 39.64C17.7906 38.3071 16.1095 36.8532 14.5375 35.2892C12.9594 33.72 11.4937 32.0584 10.1437 30.3138C8.8382 28.6378 7.68579 26.8514 6.7 24.9754C5.78314 23.2288 5.03204 21.4026 4.45625 19.52C3.91992 17.806 3.6399 16.0242 3.625 14.2308C3.625 13.0123 3.73125 11.9723 3.94375 11.1046C4.14078 10.2743 4.46983 9.47989 4.91875 8.75075C5.35625 8.04306 5.89687 7.36614 6.53125 6.70767C7.16562 6.04921 7.90625 5.3046 8.75 4.47075C9.66751 3.57705 10.9063 3.07613 12.1969 3.07691C13.0094 3.07691 13.7906 3.29229 14.5406 3.72306C15.2906 4.15998 16.0156 4.68614 16.7156 5.31383C17.4125 5.93844 18.0594 6.59383 18.6438 7.28306C19.2281 7.97229 19.7812 8.56614 20.3 9.06152C21.2069 9.96416 21.7156 11.1826 21.7156 12.4523C21.7268 13.0282 21.6205 13.6006 21.4031 14.1354C21.2053 14.6094 20.9424 15.0546 20.6219 15.4584C20.3093 15.8451 19.9654 16.2063 19.5938 16.5384C19.2188 16.8769 18.8781 17.1969 18.5688 17.5015C18.2816 17.7812 18.0123 18.0782 17.7625 18.3908C17.5411 18.6617 17.4287 19.0034 17.4469 19.3508C17.4469 19.5446 17.5938 19.8492 17.8844 20.2646C18.2617 20.7841 18.6697 21.2814 19.1062 21.7538C20.3199 23.0965 21.5822 24.3958 22.8906 25.6492C23.6219 26.3569 24.3312 27.0338 25.0156 27.6923C25.6969 28.3508 26.3594 28.9754 26.9937 29.5692C27.6281 30.16 28.1656 30.6646 28.6031 31.0831C29.0406 31.4984 29.3844 31.8215 29.6281 32.0431C29.9065 32.3273 30.2795 32.5033 30.6789 32.5389C31.0784 32.5745 31.4774 32.4673 31.8031 32.2369C32.0938 32.0277 32.3969 31.7692 32.7062 31.4677C33.0156 31.16 33.3312 30.8246 33.6562 30.4554C33.9812 30.0861 34.3563 29.7507 34.7813 29.4461C35.2031 29.1415 35.65 28.8769 36.125 28.6523C36.6692 28.4161 37.2624 28.3096 37.8563 28.3415H37.8531ZM36.0719 43.0769C37.0656 43.0769 37.8938 42.9877 38.5625 42.8123C39.2151 42.6423 39.8342 42.3656 40.3937 41.9938C40.9469 41.6246 41.4656 41.1938 41.9562 40.6984C42.4437 40.2 43.0375 39.6154 43.7375 38.9446C44.0813 38.6061 44.25 38.2061 44.25 37.7415C44.25 37.5323 44.1187 37.2369 43.8594 36.8492C43.5523 36.4039 43.2259 35.9717 42.8813 35.5538C42.4649 35.0442 42.0161 34.5612 41.5375 34.1077C41.0375 33.6308 40.5469 33.1877 40.075 32.7877C39.6643 32.434 39.2323 32.1052 38.7812 31.8031C38.3906 31.5477 38.0813 31.4184 37.8531 31.4184C37.5034 31.421 37.163 31.5295 36.8781 31.7292C36.5491 31.9532 36.2453 32.2111 35.9719 32.4984C35.6812 32.8061 35.3625 33.1415 35.0219 33.5108C34.6781 33.88 34.3031 34.2154 33.8969 34.52C33.4906 34.8246 33.0437 35.0892 32.5531 35.3138C32.0166 35.5465 31.4324 35.6529 30.8469 35.6246C30.2057 35.6286 29.5703 35.5053 28.9787 35.2621C28.387 35.0189 27.8511 34.6608 27.4031 34.2092L15.7594 22.7384C15.3097 22.2988 14.9529 21.776 14.7094 21.2C14.4628 20.612 14.3303 19.9837 14.3187 19.3477C14.3187 18.7231 14.425 18.1692 14.6344 17.6892C14.8469 17.2092 15.1062 16.76 15.4156 16.3415C15.7281 15.9261 16.0688 15.5661 16.4438 15.2615C16.8188 14.9569 17.1594 14.6369 17.4687 14.2984C17.7781 13.9631 18.0469 13.6677 18.275 13.4092C18.5052 13.143 18.6187 12.7977 18.5906 12.4492C18.5906 12.24 18.4594 11.9446 18.2 11.5569C17.8971 11.1173 17.5717 10.6932 17.225 10.2861C16.8002 9.7847 16.3518 9.30315 15.8812 8.84306C15.414 8.37972 14.9249 7.9382 14.4156 7.51998C13.9918 7.17175 13.5518 6.84318 13.0969 6.53537C12.6906 6.26152 12.3906 6.13537 12.1938 6.15075C11.9624 6.14676 11.7327 6.18948 11.5188 6.27627C11.3049 6.36306 11.1113 6.49208 10.95 6.65537C10.3599 7.23639 9.7661 7.81383 9.16875 8.38767C8.67481 8.85283 8.23273 9.36857 7.85 9.92614C7.47959 10.4779 7.20697 11.0876 7.04375 11.7292C6.84915 12.5242 6.75055 13.3391 6.75 14.1569C6.75 15.6954 7 17.28 7.50625 18.9138C8.04386 20.6274 8.74708 22.2863 9.60625 23.8677C10.5031 25.5323 11.575 27.1538 12.8281 28.7231C14.0812 30.2923 15.425 31.7908 16.8594 33.2154C19.6679 36.0136 22.8743 38.3954 26.3781 40.2861C27.9546 41.1329 29.6154 41.8175 31.3344 42.3292C32.8707 42.7932 34.4652 43.0439 36.0719 43.0738V43.0769Z" fill="black"/>
</svg>
