<svg width="76" height="31" viewBox="0 0 76 31" fill="none" xmlns="http://www.w3.org/2000/svg">
<g clip-path="url(#clip0_379_317)">
<path d="M74.2071 16.2246C74.5976 15.8341 74.5976 15.2009 74.2071 14.8104L67.8431 8.4464C67.4526 8.05588 66.8195 8.05588 66.4289 8.4464C66.0384 8.83693 66.0384 9.47009 66.4289 9.86062L72.0858 15.5175L66.4289 21.1744C66.0384 21.5649 66.0384 22.198 66.4289 22.5886C66.8195 22.9791 67.4526 22.9791 67.8431 22.5886L74.2071 16.2246ZM1.54286 16.5175C2.09514 16.5175 2.54286 16.0698 2.54286 15.5175C2.54286 14.9652 2.09514 14.5175 1.54286 14.5175V16.5175ZM9.88571 14.5175C9.33343 14.5175 8.88571 14.9652 8.88571 15.5175C8.88571 16.0698 9.33343 16.5175 9.88571 16.5175V14.5175ZM11.9714 16.5175C12.5237 16.5175 12.9714 16.0698 12.9714 15.5175C12.9714 14.9652 12.5237 14.5175 11.9714 14.5175V16.5175ZM20.3143 14.5175C19.762 14.5175 19.3143 14.9652 19.3143 15.5175C19.3143 16.0698 19.762 16.5175 20.3143 16.5175V14.5175ZM22.4 16.5175C22.9523 16.5175 23.4 16.0698 23.4 15.5175C23.4 14.9652 22.9523 14.5175 22.4 14.5175V16.5175ZM30.7429 14.5175C30.1906 14.5175 29.7429 14.9652 29.7429 15.5175C29.7429 16.0698 30.1906 16.5175 30.7429 16.5175V14.5175ZM32.8286 16.5175C33.3809 16.5175 33.8286 16.0698 33.8286 15.5175C33.8286 14.9652 33.3809 14.5175 32.8286 14.5175V16.5175ZM41.1714 14.5175C40.6191 14.5175 40.1714 14.9652 40.1714 15.5175C40.1714 16.0698 40.6191 16.5175 41.1714 16.5175V14.5175ZM43.2571 16.5175C43.8094 16.5175 44.2571 16.0698 44.2571 15.5175C44.2571 14.9652 43.8094 14.5175 43.2571 14.5175V16.5175ZM51.6 14.5175C51.0477 14.5175 50.6 14.9652 50.6 15.5175C50.6 16.0698 51.0477 16.5175 51.6 16.5175V14.5175ZM53.6857 16.5175C54.238 16.5175 54.6857 16.0698 54.6857 15.5175C54.6857 14.9652 54.238 14.5175 53.6857 14.5175V16.5175ZM62.0286 14.5175C61.4763 14.5175 61.0286 14.9652 61.0286 15.5175C61.0286 16.0698 61.4763 16.5175 62.0286 16.5175V14.5175ZM64.1143 16.5175C64.6666 16.5175 65.1143 16.0698 65.1143 15.5175C65.1143 14.9652 64.6666 14.5175 64.1143 14.5175V16.5175ZM72.4571 14.5175C71.9049 14.5175 71.4571 14.9652 71.4571 15.5175C71.4571 16.0698 71.9049 16.5175 72.4571 16.5175V14.5175ZM0.5 16.5175H1.54286V14.5175H0.5V16.5175ZM9.88571 16.5175H11.9714V14.5175H9.88571V16.5175ZM20.3143 16.5175H22.4V14.5175H20.3143V16.5175ZM30.7429 16.5175H32.8286V14.5175H30.7429V16.5175ZM41.1714 16.5175H43.2571V14.5175H41.1714V16.5175ZM51.6 16.5175H53.6857V14.5175H51.6V16.5175ZM62.0286 16.5175H64.1143V14.5175H62.0286V16.5175ZM72.4571 16.5175H73.5V14.5175H72.4571V16.5175ZM74.9142 16.9317C75.6953 16.1507 75.6953 14.8843 74.9142 14.1033L62.1863 1.37534C61.4052 0.594289 60.1389 0.594289 59.3579 1.37534C58.5768 2.15638 58.5768 3.42271 59.3579 4.20376L70.6716 15.5175L59.3579 26.8312C58.5768 27.6123 58.5768 28.8786 59.3579 29.6596C60.1389 30.4407 61.4052 30.4407 62.1863 29.6596L74.9142 16.9317ZM1.54286 17.5175C2.64743 17.5175 3.54286 16.6221 3.54286 15.5175C3.54286 14.4129 2.64743 13.5175 1.54286 13.5175V17.5175ZM9.88571 13.5175C8.78115 13.5175 7.88572 14.4129 7.88572 15.5175C7.88572 16.6221 8.78115 17.5175 9.88571 17.5175V13.5175ZM11.9714 17.5175C13.076 17.5175 13.9714 16.6221 13.9714 15.5175C13.9714 14.4129 13.076 13.5175 11.9714 13.5175V17.5175ZM20.3143 13.5175C19.2097 13.5175 18.3143 14.4129 18.3143 15.5175C18.3143 16.6221 19.2097 17.5175 20.3143 17.5175V13.5175ZM22.4 17.5175C23.5046 17.5175 24.4 16.6221 24.4 15.5175C24.4 14.4129 23.5046 13.5175 22.4 13.5175V17.5175ZM30.7429 13.5175C29.6383 13.5175 28.7429 14.4129 28.7429 15.5175C28.7429 16.6221 29.6383 17.5175 30.7429 17.5175V13.5175ZM32.8286 17.5175C33.9331 17.5175 34.8286 16.6221 34.8286 15.5175C34.8286 14.4129 33.9331 13.5175 32.8286 13.5175V17.5175ZM41.1714 13.5175C40.0669 13.5175 39.1714 14.4129 39.1714 15.5175C39.1714 16.6221 40.0669 17.5175 41.1714 17.5175V13.5175ZM43.2571 17.5175C44.3617 17.5175 45.2571 16.6221 45.2571 15.5175C45.2571 14.4129 44.3617 13.5175 43.2571 13.5175V17.5175ZM51.6 13.5175C50.4954 13.5175 49.6 14.4129 49.6 15.5175C49.6 16.6221 50.4954 17.5175 51.6 17.5175V13.5175ZM53.6857 17.5175C54.7903 17.5175 55.6857 16.6221 55.6857 15.5175C55.6857 14.4129 54.7903 13.5175 53.6857 13.5175V17.5175ZM62.0286 13.5175C60.924 13.5175 60.0286 14.4129 60.0286 15.5175C60.0286 16.6221 60.924 17.5175 62.0286 17.5175V13.5175ZM64.1143 17.5175C65.2189 17.5175 66.1143 16.6221 66.1143 15.5175C66.1143 14.4129 65.2189 13.5175 64.1143 13.5175V17.5175ZM72.4571 13.5175C71.3526 13.5175 70.4571 14.4129 70.4571 15.5175C70.4571 16.6221 71.3526 17.5175 72.4571 17.5175V13.5175ZM0.5 17.5175H1.54286V13.5175H0.5V17.5175ZM9.88571 17.5175H11.9714V13.5175H9.88571V17.5175ZM20.3143 17.5175H22.4V13.5175H20.3143V17.5175ZM30.7429 17.5175H32.8286V13.5175H30.7429V17.5175ZM41.1714 17.5175H43.2571V13.5175H41.1714V17.5175ZM51.6 17.5175H53.6857V13.5175H51.6V17.5175ZM62.0286 17.5175H64.1143V13.5175H62.0286V17.5175ZM72.4571 17.5175H73.5V13.5175H72.4571V17.5175Z" fill="#597963"/>
</g>
<defs>
<clipPath id="clip0_379_317">
<rect width="75" height="30" fill="white" transform="translate(0.5 0.517578)"/>
</clipPath>
</defs>
</svg>
