<svg aria-hidden="true" style="position: absolute; width: 0; height: 0; overflow: hidden;" version="1.1" xmlns="http://www.w3.org/2000/svg" xmlns:xlink="http://www.w3.org/1999/xlink">
<defs>
<symbol id="resp" viewBox="0 0 32 32">
<path d="M30.713 23.227c-0.455-0.92-1.619-1.299-2.53-0.817l-5.951 3.15h-0.786c0.349-0.382 0.54-0.874 0.539-1.396-0.002-1.138-0.929-2.064-2.067-2.064h-4.471l-2.271-1.625c-0.518-0.371-1.129-0.567-1.767-0.567h-0.854c-0.186 0-0.337 0.151-0.337 0.337s0.151 0.337 0.337 0.337h0.854c0.496 0 0.971 0.152 1.374 0.441l2.359 1.688c0.057 0.041 0.126 0.063 0.196 0.063h4.579c0.766 0 1.391 0.624 1.392 1.39 0.001 0.76-0.632 1.395-1.392 1.395h-0.381c-0.867 0-1.713 0.354-2.322 0.97-0.131 0.159-0.13 0.318 0.003 0.477 0.133 0.131 0.346 0.13 0.477-0.003 0.483-0.489 1.154-0.77 1.842-0.77h2.778c0.055 0 0.109-0.013 0.158-0.039l6.025-3.189c0.582-0.308 1.32-0.065 1.61 0.52 0.282 0.57 0.065 1.254-0.492 1.559l-10.544 5.758c-0.639 0.349-1.39 0.385-2.060 0.099l-8.953-3.826c-0.039-0.017-0.080-0.026-0.122-0.027l-0.876-0.027 0-7.979c0-0.186-0.151-0.337-0.337-0.337h-5.724c-0.186 0-0.337 0.151-0.337 0.337v9.311c0 0.186 0.151 0.337 0.337 0.337h5.724c0.186 0 0.337-0.151 0.337-0.337v-0.657l0.791 0.024 8.895 3.801c0.849 0.363 1.839 0.315 2.648-0.127l10.544-5.758c0.877-0.479 1.217-1.555 0.774-2.45l-0 0zM6.386 28.056h-5.049v-8.636h5.049v8.636z"></path>
<path d="M3.862 26.969c-0.781 0-1.417-0.636-1.417-1.417s0.636-1.417 1.417-1.417 1.417 0.636 1.417 1.417c0 0.781-0.636 1.417-1.417 1.417zM3.862 24.81c-0.409 0-0.742 0.333-0.742 0.742s0.333 0.742 0.742 0.742c0.409 0 0.742-0.333 0.742-0.742s-0.333-0.742-0.742-0.742z"></path>
<path d="M9.116 20.246c0 0.242-0.196 0.439-0.438 0.439s-0.438-0.196-0.438-0.439c0-0.242 0.196-0.439 0.438-0.439s0.438 0.196 0.438 0.439z"></path>
<path d="M22.585 20.472h-1.714c-0.507 0-0.922-0.381-0.988-0.906-0.002-0.014-0.003-0.028-0.003-0.042v-1.115c-0.818-0.2-1.607-0.534-2.311-0.977l-0.785 0.784c-0.363 0.363-1.030 0.302-1.374-0.041l-1.187-1.225c-0.356-0.368-0.301-1.024 0.045-1.369l0.789-0.787c-0.458-0.755-0.783-1.555-0.952-2.342h-1.108c-0.507 0-0.922-0.381-0.988-0.906-0.002-0.014-0.003-0.028-0.003-0.042v-1.71c0-0.506 0.382-0.921 0.908-0.986 0.014-0.002 0.028-0.003 0.042-0.003h1.118c0.201-0.816 0.535-1.603 0.979-2.305l-0.784-0.783c-0.363-0.363-0.303-1.030 0.041-1.373l1.228-1.185c0.368-0.355 1.025-0.3 1.37 0.045l0.789 0.788c0.757-0.457 1.559-0.782 2.348-0.95v-1.146c0-0.506 0.382-0.921 0.908-0.986 0.014-0.002 0.028-0.003 0.042-0.003h1.714c0.524 0 0.949 0.444 0.949 0.989v1.115c0.818 0.2 1.607 0.534 2.311 0.977l0.785-0.784c0.363-0.362 1.030-0.302 1.374 0.041l1.187 1.226c0.356 0.368 0.301 1.024-0.045 1.369l-0.788 0.787c0.458 0.755 0.783 1.555 0.952 2.342h1.108c0.539 0 0.962 0.373 1.028 0.906 0.002 0.014 0.003 0.028 0.003 0.042v1.71c0 0.506-0.382 0.921-0.908 0.986-0.014 0.002-0.028 0.003-0.042 0.003h-1.118c-0.201 0.816-0.535 1.603-0.979 2.305l0.784 0.783c0.013 0.013 0.025 0.027 0.036 0.043 0.308 0.431 0.277 0.978-0.077 1.331l-1.228 1.185c-0.012 0.011-0.025 0.022-0.038 0.032-0.431 0.307-0.979 0.276-1.332-0.077l-0.789-0.788c-0.757 0.457-1.559 0.782-2.348 0.95v1.105c0 0.506-0.382 0.921-0.908 0.986-0.014 0.002-0.028 0.002-0.042 0.002l0-0zM20.556 19.499c0.020 0.118 0.106 0.298 0.315 0.298h1.689c0.119-0.020 0.299-0.106 0.299-0.314v-1.384c0-0.165 0.119-0.306 0.282-0.333 0.869-0.144 1.77-0.507 2.606-1.049 0.133-0.087 0.309-0.068 0.422 0.044l0.979 0.977c0.138 0.137 0.322 0.097 0.446 0.017l1.204-1.161c0.133-0.132 0.093-0.313 0.014-0.437l-0.957-0.955c-0.115-0.115-0.132-0.296-0.040-0.43 0.522-0.761 0.899-1.648 1.090-2.565 0.033-0.156 0.17-0.268 0.33-0.268h1.363c0.119-0.020 0.299-0.106 0.299-0.314v-1.686c-0.015-0.089-0.080-0.298-0.356-0.298h-1.387c-0.165 0-0.306-0.119-0.333-0.282-0.145-0.867-0.508-1.765-1.052-2.599-0.087-0.134-0.069-0.31 0.044-0.423l0.979-0.977c0.137-0.137 0.097-0.32 0.017-0.442l-1.164-1.201c-0.133-0.133-0.316-0.094-0.439-0.014l-0.957 0.955c-0.115 0.115-0.295 0.131-0.429 0.040-0.763-0.521-1.652-0.897-2.571-1.088-0.157-0.033-0.269-0.17-0.269-0.33v-1.384c0-0.188-0.142-0.314-0.275-0.314h-1.689c-0.119 0.020-0.299 0.106-0.299 0.314v1.425c0 0.165-0.119 0.306-0.282 0.333-0.869 0.144-1.77 0.507-2.606 1.049-0.133 0.087-0.309 0.068-0.422-0.044l-0.979-0.977c-0.138-0.138-0.322-0.097-0.446-0.017l-1.204 1.161c-0.133 0.132-0.093 0.313-0.014 0.437l0.957 0.955c0.115 0.115 0.132 0.296 0.040 0.43-0.522 0.761-0.899 1.648-1.090 2.565-0.033 0.156-0.17 0.268-0.33 0.268h-1.363c-0.119 0.020-0.299 0.106-0.299 0.314v1.685c0.020 0.118 0.106 0.298 0.316 0.298h1.387c0.165 0 0.306 0.119 0.333 0.282 0.145 0.867 0.508 1.765 1.052 2.599 0.087 0.134 0.069 0.31-0.044 0.423l-0.979 0.977c-0.137 0.137-0.097 0.32-0.017 0.442l1.164 1.201c0.133 0.133 0.316 0.094 0.439 0.014l0.957-0.955c0.115-0.115 0.295-0.131 0.429-0.040 0.763 0.521 1.652 0.897 2.571 1.088 0.157 0.033 0.269 0.171 0.269 0.33l0 1.36-0 0z"></path>
<path d="M25.5 14.894h-7.422c-0.558 0-1.012-0.454-1.012-1.012v-1.87c0-0.186 0.151-0.337 0.337-0.337s0.337 0.151 0.337 0.337v1.87c0 0.186 0.151 0.337 0.337 0.337h7.422c0.186 0 0.337-0.151 0.337-0.337v-1.87c0-0.186 0.151-0.337 0.337-0.337s0.337 0.151 0.337 0.337v1.87c-0 0.558-0.454 1.012-1.012 1.012h-0z"></path>
<path d="M25.973 7.607h-2.024v-0.922c0-0.558-0.454-1.012-1.012-1.012h-2.294c-0.558 0-1.012 0.454-1.012 1.012v0.922h-2.024c-0.484 0-0.877 0.393-0.877 0.877v1.305c0 0.339 0.229 0.634 0.557 0.719l3.261 0.838v0.876c0 0.186 0.151 0.337 0.337 0.337h1.809c0.186 0 0.337-0.151 0.337-0.337v-0.876l3.261-0.838c0.328-0.084 0.557-0.38 0.557-0.719v-1.305c0-0.484-0.394-0.877-0.877-0.877h-0zM20.305 6.685c0-0.186 0.151-0.337 0.337-0.337h2.294c0.186 0 0.337 0.151 0.337 0.337v0.922h-2.969l-0-0.922zM22.357 11.885h-1.134v-1.134h1.134v1.134zM26.175 9.79c0 0.031-0.021 0.058-0.051 0.065l-3.093 0.795v-0.237c0-0.186-0.151-0.337-0.337-0.337h-1.809c-0.186 0-0.337 0.151-0.337 0.337v0.237l-3.093-0.795c-0.030-0.008-0.051-0.035-0.051-0.065l-0-1.305c0-0.112 0.091-0.202 0.202-0.202h8.367c0.112 0 0.202 0.091 0.202 0.202l-0 1.305z"></path>
<path d="M5.662 10.621h-1.344c-0.484 0-0.877-0.393-0.877-0.877v-0.491c-0.368-0.146-0.711-0.342-1.023-0.585l-0.443 0.253c-0.416 0.238-0.951 0.094-1.193-0.32l-0.667-1.144c-0.24-0.412-0.093-0.966 0.322-1.204l0.43-0.246c-0.055-0.385-0.055-0.778 0-1.164l-0.43-0.246c-0.414-0.237-0.564-0.791-0.322-1.204l0.667-1.144c0.241-0.414 0.776-0.557 1.193-0.32l0.443 0.253c0.312-0.243 0.655-0.439 1.023-0.585v-0.491c0-0.484 0.394-0.877 0.877-0.877h1.344c0.484 0 0.877 0.393 0.877 0.877v0.491c0.368 0.146 0.71 0.342 1.023 0.585l0.443-0.253c0.416-0.238 0.951-0.094 1.193 0.32l0.667 1.144c0.241 0.412 0.093 0.966-0.323 1.204l-0.43 0.246c0.055 0.385 0.055 0.779 0 1.164l0.43 0.246c0.415 0.238 0.565 0.788 0.323 1.204l-0.668 1.144c-0.242 0.414-0.777 0.557-1.193 0.32l-0.443-0.253c-0.312 0.243-0.654 0.439-1.023 0.585v0.491c0 0.484-0.393 0.877-0.877 0.877zM2.454 7.922c0.080 0 0.159 0.028 0.222 0.084 0.354 0.311 0.761 0.543 1.208 0.691 0.138 0.046 0.232 0.175 0.232 0.32v0.728c0 0.112 0.091 0.202 0.202 0.202h1.344c0.112 0 0.202-0.091 0.202-0.202v-0.728c0-0.146 0.093-0.275 0.232-0.32 0.447-0.148 0.854-0.38 1.208-0.691 0.108-0.095 0.265-0.111 0.39-0.039l0.646 0.369c0.096 0.055 0.22 0.022 0.275-0.074l0.668-1.144c0.052-0.113 0.028-0.206-0.074-0.278l-0.636-0.363c-0.127-0.072-0.192-0.218-0.163-0.361 0.093-0.453 0.093-0.926 0-1.379-0.029-0.143 0.037-0.288 0.163-0.361l0.636-0.363c0.102-0.072 0.127-0.165 0.074-0.278l-0.668-1.144c-0.056-0.095-0.179-0.129-0.275-0.074l-0.646 0.369c-0.125 0.071-0.281 0.055-0.39-0.039-0.354-0.311-0.761-0.543-1.208-0.691-0.138-0.046-0.232-0.175-0.232-0.32v-0.727c0-0.112-0.091-0.202-0.202-0.202h-1.344c-0.112 0-0.202 0.091-0.202 0.202v0.728c0 0.146-0.093 0.275-0.232 0.32-0.448 0.148-0.854 0.38-1.208 0.691-0.108 0.095-0.265 0.111-0.39 0.039l-0.646-0.369c-0.096-0.055-0.22-0.022-0.275 0.074l-0.667 1.144c-0.052 0.113-0.028 0.206 0.074 0.278l0.636 0.363c0.127 0.072 0.192 0.218 0.163 0.361-0.093 0.453-0.093 0.926 0 1.379 0.029 0.143-0.037 0.288-0.163 0.361l-0.636 0.363c-0.102 0.072-0.127 0.165-0.074 0.278l0.667 1.144c0.056 0.096 0.179 0.129 0.275 0.074l0.646-0.369c0.052-0.030 0.11-0.045 0.168-0.045v0z"></path>
<path d="M6.211 7.741c-0.1 0-0.2-0.025-0.292-0.075l-0.929-0.508-0.929 0.508c-0.43 0.235-0.971-0.143-0.89-0.632l0.183-1.11-0.783-0.793c-0.338-0.342-0.138-0.954 0.342-1.027l1.061-0.16 0.468-0.985c0.213-0.448 0.882-0.453 1.097 0l0.468 0.985 1.061 0.16c0.475 0.072 0.682 0.681 0.342 1.027l-0.782 0.794 0.183 1.11c0.059 0.359-0.236 0.707-0.599 0.707l0-0zM3.145 4.751l0.81 0.822c0.076 0.077 0.11 0.185 0.093 0.292l-0.189 1.143 0.969-0.53c0.101-0.055 0.223-0.055 0.324 0l0.969 0.53-0.189-1.143c-0.018-0.106 0.017-0.215 0.093-0.292l0.811-0.822-1.108-0.167c-0.111-0.017-0.206-0.088-0.254-0.189l-0.484-1.019-0.483 1.019c-0.048 0.101-0.143 0.172-0.254 0.189l-1.108 0.168z"></path>
<path d="M8.228 18.11c-1.86 0-3.374-1.513-3.374-3.373s1.513-3.373 3.374-3.373c1.86 0 3.374 1.513 3.374 3.373s-1.513 3.373-3.374 3.373zM8.228 12.038c-1.488 0-2.699 1.211-2.699 2.699s1.211 2.699 2.699 2.699c1.488 0 2.699-1.211 2.699-2.699s-1.211-2.699-2.699-2.699v0z"></path>
<path d="M7.709 16.082c-0.094 0-0.18-0.040-0.257-0.118l-0.777-0.912c-0.121-0.142-0.104-0.355 0.038-0.475s0.355-0.104 0.476 0.038l0.527 0.619 1.557-1.73c0.125-0.139 0.338-0.15 0.476-0.025s0.15 0.338 0.025 0.476l-1.815 2.016c-0.064 0.071-0.155 0.112-0.25 0.112v0z"></path>
</symbol>
<symbol id="star" viewBox="0 0 32 32">
<path d="M3.881 8.618l0.871 2.457h2.82l-2.281 1.519 0.871 2.457-2.281-1.519-2.281 1.519 0.871-2.457-2.281-1.519h2.82l0.871-2.457z"></path>
<path d="M9.941 12.612l0.871 2.457h2.82l-2.281 1.519 0.871 2.457-2.281-1.519-2.281 1.519 0.871-2.457-2.281-1.519h2.82l0.871-2.457z"></path>
<path d="M16 16.605l0.871 2.457h2.82l-2.281 1.519 0.871 2.457-2.281-1.519-2.281 1.519 0.871-2.457-2.281-1.519h2.82l0.871-2.457z"></path>
<path d="M22.061 12.612l0.871 2.457h2.82l-2.281 1.519 0.871 2.457-2.281-1.519-2.281 1.519 0.871-2.457-2.281-1.519h2.82l0.871-2.457z"></path>
<path d="M28.119 8.618l0.871 2.457h2.82l-2.281 1.519 0.871 2.457-2.281-1.519-2.281 1.519 0.871-2.457-2.281-1.519h2.82l0.871-2.457z"></path>
</symbol>
<symbol id="xp" viewBox="0 0 32 32">
<path d="M14.376 0.463l-0.155 0.147v3.322l0.155 0.147 0.149 0.153h3.365l0.149-0.153 0.155-0.147v-3.322l-0.155-0.147-0.149-0.153h-3.365l-0.149 0.153zM17.201 2.271v0.98h-1.986v-1.961h1.986v0.98z"></path>
<path d="M11.768 2.48c-2.204 0.723-4.067 1.863-5.718 3.493-1.676 1.655-2.899 3.622-3.588 5.786-0.087 0.282-0.161 0.546-0.161 0.588 0 0.061 0.857 0.319 0.9 0.27 0.012-0.012 0.136-0.374 0.286-0.815 0.49-1.459 1.416-3.107 2.384-4.26 0.515-0.613 1.627-1.661 2.216-2.102 1.124-0.827 2.601-1.587 3.936-2.016l0.807-0.263-0.118-0.447c-0.087-0.313-0.155-0.441-0.224-0.441-0.055 0.005-0.378 0.097-0.72 0.208z"></path>
<path d="M19.752 2.59c-0.037 0.178-0.087 0.38-0.105 0.453-0.031 0.116 0.037 0.153 0.764 0.386 0.875 0.282 2.123 0.852 2.918 1.342 1.552 0.95 3.023 2.36 4.067 3.904 0.534 0.797 1.235 2.231 1.54 3.156 0.242 0.735 0.279 0.803 0.397 0.772 0.075-0.019 0.279-0.068 0.459-0.104 0.224-0.055 0.323-0.104 0.323-0.171 0-0.227-0.534-1.624-0.906-2.39-0.751-1.544-1.608-2.74-2.85-3.965-1.205-1.195-2.396-2.035-3.955-2.782-0.77-0.374-2.247-0.919-2.483-0.919-0.063 0-0.118 0.116-0.168 0.319z"></path>
<path d="M15.711 6.684v0.49h0.993v-0.981h-0.993v0.49z"></path>
<path d="M8.26 8.645v0.49h0.993v-0.98h-0.993v0.49z"></path>
<path d="M15.711 8.645v0.49h0.993v-0.98h-0.993v0.49z"></path>
<path d="M23.161 8.645v0.49h0.993v-0.98h-0.993v0.49z"></path>
<path d="M15.4 10.674c-0.49 0.080-1.192 0.435-1.453 0.741-0.894 1.030-0.956 3.193-0.136 4.541 0.155 0.245 0.193 0.362 0.143 0.398-0.043 0.031-0.751 0.435-1.583 0.901s-1.54 0.901-1.577 0.968c-0.037 0.074-0.056 0.429-0.037 0.925 0.018 0.705 0.043 0.846 0.186 1.146 0.199 0.435 0.565 0.84 0.888 0.98 0.23 0.104 0.515 0.116 4.377 0.116s4.147-0.012 4.377-0.116c0.323-0.141 0.689-0.545 0.888-0.98 0.143-0.3 0.168-0.441 0.186-1.146 0.018-0.496 0-0.852-0.037-0.925-0.037-0.067-0.745-0.503-1.577-0.968s-1.54-0.87-1.583-0.907c-0.056-0.043-0.037-0.11 0.075-0.276 0.435-0.631 0.689-1.716 0.627-2.648-0.105-1.63-0.832-2.537-2.21-2.752-0.472-0.079-1.068-0.073-1.553 0.001zM17.406 11.796c0.577 0.276 0.788 0.797 0.788 1.931 0 0.968-0.23 1.691-0.689 2.182-0.41 0.442-0.67 0.552-1.298 0.552s-0.888-0.11-1.298-0.552c-0.466-0.497-0.689-1.213-0.689-2.219 0-1.649 0.478-2.127 2.117-2.084 0.639 0.019 0.757 0.037 1.068 0.19zM15.189 17.238c0.391 0.184 0.478 0.202 1.018 0.202 0.534 0 0.627-0.018 1.024-0.202l0.441-0.202 3.005 1.692v0.49c0 0.564-0.081 0.907-0.254 1.079-0.112 0.11-0.248 0.116-4.216 0.116s-4.104-0.006-4.216-0.116c-0.174-0.172-0.254-0.515-0.254-1.079v-0.49l1.478-0.84c0.807-0.46 1.49-0.84 1.509-0.84 0.025-0.006 0.236 0.086 0.466 0.19z"></path>
<path d="M1.742 14.137c-0.882 0.319-1.496 1.189-1.409 2.010 0.068 0.656 0.553 1.324 1.192 1.63 0.459 0.22 1.117 0.214 1.564-0.018 0.466-0.239 0.714-0.478 0.956-0.913 0.186-0.343 0.211-0.435 0.211-0.846-0.006-0.558-0.168-0.938-0.59-1.348-0.528-0.527-1.31-0.735-1.925-0.515zM2.909 15.179c0.273 0.202 0.397 0.496 0.366 0.901-0.037 0.613-0.41 0.925-1.055 0.883-0.621-0.037-0.937-0.404-0.894-1.042 0.025-0.405 0.161-0.631 0.484-0.797 0.279-0.147 0.857-0.117 1.099 0.055z"></path>
<path d="M28.283 14.192c-0.099 0.092-0.155 0.214-0.155 0.343 0 0.165 0.099 0.294 0.633 0.828l0.633 0.637-0.633 0.637c-0.534 0.533-0.633 0.662-0.633 0.828 0 0.129 0.056 0.251 0.161 0.356 0.13 0.129 0.199 0.147 0.385 0.116 0.18-0.024 0.348-0.153 0.832-0.631l0.608-0.595 0.652 0.631c0.633 0.619 0.658 0.631 0.882 0.601 0.286-0.049 0.385-0.147 0.435-0.429 0.031-0.221 0.018-0.245-0.608-0.87l-0.64-0.643 0.602-0.601c0.484-0.478 0.615-0.644 0.64-0.821 0.031-0.184 0.012-0.251-0.118-0.38-0.106-0.104-0.23-0.159-0.36-0.159-0.168 0-0.298 0.098-0.838 0.625l-0.646 0.625-0.646-0.625c-0.54-0.527-0.67-0.625-0.838-0.625-0.13 0-0.255 0.056-0.348 0.154z"></path>
<path d="M6.274 16v0.49h0.993v-0.98h-0.993v0.49z"></path>
<path d="M8.26 16v0.49h0.993v-0.98h-0.993v0.49z"></path>
<path d="M23.161 16v0.49h0.993v-0.98h-0.993v0.49z"></path>
<path d="M25.147 16v0.49h0.993v-0.98h-0.993v0.49z"></path>
<path d="M2.754 19.506c-0.248 0.068-0.453 0.153-0.453 0.184 0 0.233 0.602 1.771 1 2.562 1.043 2.065 2.477 3.769 4.296 5.105 0.919 0.674 1.453 0.993 2.471 1.477 0.826 0.392 2.198 0.895 2.452 0.895 0.118 0 0.149-0.061 0.242-0.429 0.062-0.239 0.099-0.441 0.087-0.453-0.012-0.006-0.397-0.135-0.851-0.276-1.465-0.466-3.191-1.404-4.352-2.36-0.64-0.527-1.633-1.551-2.111-2.17-0.857-1.116-1.627-2.574-2.061-3.886-0.143-0.429-0.261-0.784-0.267-0.778 0 0-0.211 0.061-0.453 0.129z"></path>
<path d="M28.941 20.155c-0.286 0.864-0.863 2.090-1.36 2.875-0.962 1.532-2.39 2.985-3.955 4.014-0.82 0.54-2.26 1.22-3.21 1.526-0.453 0.141-0.832 0.264-0.838 0.264-0.006 0.006 0.037 0.202 0.1 0.435 0.075 0.288 0.143 0.435 0.211 0.447 0.193 0.037 1.633-0.484 2.558-0.932 2.949-1.416 5.271-3.708 6.711-6.625 0.416-0.84 0.95-2.243 0.956-2.488 0-0.074-0.112-0.129-0.404-0.202-0.217-0.055-0.422-0.098-0.453-0.098s-0.174 0.355-0.317 0.784z"></path>
<path d="M8.26 23.355v0.49h0.993v-0.98h-0.993v0.49z"></path>
<path d="M15.711 23.355v0.49h0.993v-0.98h-0.993v0.49z"></path>
<path d="M23.161 23.355v0.49h0.993v-0.98h-0.993v0.49z"></path>
<path d="M15.711 25.316v0.49h0.993v-0.98h-0.993v0.49z"></path>
<path d="M15.953 27.828c-0.050 0.031-0.577 0.766-1.161 1.636-0.739 1.097-1.068 1.637-1.068 1.753 0 0.098 0.062 0.233 0.155 0.319l0.149 0.153h4.358l0.149-0.153c0.093-0.086 0.155-0.22 0.155-0.319 0-0.116-0.329-0.656-1.068-1.753-0.59-0.87-1.117-1.612-1.173-1.643-0.137-0.067-0.367-0.067-0.497 0.006zM16.754 29.943l0.509 0.766h-2.111l0.509-0.766c0.286-0.417 0.528-0.76 0.546-0.76s0.261 0.343 0.546 0.76z"></path>
</symbol>
<symbol id="arrow-top" viewBox="0 0 32 32">
<path d="M16 1l-15 15h9v16h12v-16h9z"></path>
</symbol>
<symbol id="report" viewBox="0 0 32 32">
<path d="M6.538 0.872h18.969c0.492 0 0.938 0.201 1.262 0.525 0.325 0.324 0.527 0.772 0.527 1.264v26.678c0 0.492-0.201 0.938-0.525 1.262-0.326 0.325-0.773 0.527-1.264 0.527h-18.969c-0.491 0-0.938-0.201-1.262-0.525-0.325-0.326-0.527-0.773-0.527-1.264v-26.678c0-0.492 0.201-0.94 0.525-1.264l0.031-0.028c0.321-0.307 0.756-0.497 1.233-0.497l0 0zM7.872 15.845c-0.181-0.199-0.166-0.507 0.032-0.688s0.507-0.166 0.688 0.032l0.477 0.523 1.217-1.55c0.166-0.211 0.473-0.248 0.684-0.082s0.248 0.473 0.082 0.684l-1.571 2.002-0.055 0.059c-0.199 0.181-0.507 0.166-0.688-0.032l-0.866-0.949zM7.872 4.535c-0.181-0.199-0.166-0.507 0.032-0.688s0.507-0.166 0.688 0.032l0.477 0.523 1.217-1.55c0.166-0.211 0.473-0.248 0.684-0.082s0.248 0.473 0.082 0.684l-1.571 2.002-0.055 0.059c-0.199 0.181-0.507 0.166-0.688-0.032l-0.866-0.949zM12.4 4.643c-0.269 0-0.488-0.219-0.488-0.488s0.219-0.488 0.488-0.488h11.414c0.269 0 0.488 0.219 0.488 0.488s-0.219 0.488-0.488 0.488h-11.414zM7.872 27.156c-0.181-0.199-0.166-0.507 0.032-0.688s0.507-0.166 0.688 0.032l0.477 0.523 1.217-1.55c0.166-0.211 0.473-0.248 0.684-0.082s0.248 0.473 0.082 0.684l-1.571 2.002-0.055 0.059c-0.199 0.181-0.507 0.166-0.688-0.032l-0.866-0.949zM12.4 27.264c-0.269 0-0.488-0.218-0.488-0.488s0.219-0.488 0.488-0.488h11.414c0.269 0 0.488 0.218 0.488 0.488s-0.219 0.488-0.488 0.488h-11.414zM7.872 23.386c-0.181-0.199-0.166-0.507 0.032-0.688s0.507-0.166 0.688 0.032l0.477 0.523 1.217-1.55c0.166-0.211 0.473-0.248 0.684-0.082s0.248 0.473 0.082 0.684l-1.571 2.003-0.055 0.059c-0.199 0.181-0.507 0.166-0.688-0.032l-0.866-0.949zM12.4 23.494c-0.269 0-0.488-0.218-0.488-0.488s0.219-0.488 0.488-0.488h11.414c0.269 0 0.488 0.218 0.488 0.488s-0.219 0.488-0.488 0.488h-11.414zM7.872 19.616c-0.181-0.199-0.166-0.507 0.032-0.688s0.507-0.166 0.688 0.032l0.477 0.523 1.217-1.55c0.166-0.211 0.473-0.248 0.684-0.082s0.248 0.473 0.082 0.684l-1.571 2.002-0.055 0.059c-0.199 0.181-0.507 0.166-0.688-0.032l-0.866-0.949zM12.4 19.724c-0.269 0-0.488-0.218-0.488-0.488s0.219-0.488 0.488-0.488h11.414c0.269 0 0.488 0.218 0.488 0.488s-0.219 0.488-0.488 0.488h-11.414zM7.872 8.305c-0.181-0.199-0.166-0.507 0.032-0.688s0.507-0.166 0.688 0.032l0.477 0.523 1.217-1.55c0.166-0.211 0.473-0.248 0.684-0.082s0.248 0.473 0.082 0.684l-1.571 2.002-0.055 0.059c-0.199 0.181-0.507 0.166-0.688-0.032l-0.866-0.949zM12.4 8.413c-0.269 0-0.488-0.219-0.488-0.488s0.219-0.488 0.488-0.488h11.414c0.269 0 0.488 0.219 0.488 0.488s-0.219 0.488-0.488 0.488h-11.414zM7.872 12.075c-0.181-0.199-0.166-0.507 0.032-0.688s0.507-0.166 0.688 0.032l0.477 0.523 1.217-1.55c0.166-0.211 0.473-0.248 0.684-0.082s0.248 0.473 0.082 0.684l-1.571 2.002-0.055 0.059c-0.199 0.181-0.507 0.166-0.688-0.032l-0.866-0.949zM12.4 12.184c-0.269 0-0.488-0.219-0.488-0.488s0.219-0.488 0.488-0.488h11.414c0.269 0 0.488 0.219 0.488 0.488s-0.219 0.488-0.488 0.488h-11.414zM12.4 15.953c-0.269 0-0.488-0.219-0.488-0.488s0.219-0.488 0.488-0.488h11.414c0.269 0 0.488 0.219 0.488 0.488s-0.219 0.488-0.488 0.488h-11.414zM25.507 1.849h-18.969c-0.214 0-0.409 0.083-0.554 0.219l-0.019 0.020c-0.147 0.147-0.239 0.351-0.239 0.574v26.678c0 0.224 0.091 0.428 0.238 0.575s0.351 0.238 0.574 0.238h18.969c0.224 0 0.428-0.091 0.575-0.238s0.238-0.351 0.238-0.575v-26.678c0-0.223-0.092-0.426-0.239-0.574s-0.35-0.239-0.574-0.239v0z"></path>
</symbol>
<symbol id="agreement" viewBox="0 0 25 32">
<path d="M4.008 0.032c-2.196 0-3.992 1.796-3.992 3.992v23.509c0 0.49 0.397 0.887 0.887 0.887h11.089v2.661c-0 0.329 0.181 0.631 0.472 0.785s0.643 0.135 0.914-0.050l2.162-1.442 2.162 1.442c0.272 0.185 0.624 0.204 0.914 0.050s0.472-0.456 0.472-0.785v-2.661h3.105c0.49 0 0.887-0.397 0.887-0.887v-20.404h0.887c0.49 0 0.887-0.397 0.887-0.887v-2.218c0-2.196-1.796-3.992-3.992-3.992l-16.855-0zM4.008 1.806h0.208c0.036 0.011 0.073 0.021 0.111 0.028 1.081 0.152 1.899 1.054 1.899 2.19v2.218c0 0.49 0.397 0.887 0.887 0.887h14.194v19.517h-2.218v-0.901c0.555-0.74 0.887-1.657 0.887-2.647 0-2.439-1.996-4.436-4.436-4.436s-4.436 1.996-4.436 4.436c0 0.991 0.332 1.907 0.887 2.647v0.901h-10.202v-22.622c0-1.244 0.974-2.218 2.218-2.218l0 0zM7.265 1.806h13.598c1.244 0 2.218 0.974 2.218 2.218v1.331h-15.081v-1.331c0-0.833-0.295-1.576-0.735-2.218h0zM3.925 8.459c-0.235 0.011-0.457 0.115-0.615 0.289s-0.241 0.404-0.231 0.64c0.011 0.235 0.115 0.457 0.289 0.615s0.404 0.241 0.64 0.23h15.081c0.237 0.003 0.466-0.088 0.636-0.255s0.264-0.394 0.264-0.632-0.095-0.465-0.264-0.632c-0.169-0.167-0.398-0.259-0.636-0.255h-15.081c-0.028-0.001-0.056-0.001-0.083 0v0zM3.925 11.564c-0.235 0.011-0.457 0.115-0.615 0.289s-0.241 0.404-0.231 0.64c0.011 0.235 0.115 0.456 0.289 0.615s0.404 0.241 0.64 0.23h15.081c0.237 0.003 0.466-0.088 0.636-0.255s0.264-0.394 0.264-0.632c0-0.237-0.095-0.465-0.264-0.632s-0.398-0.259-0.636-0.255h-15.081c-0.028-0.001-0.056-0.001-0.083 0v0zM3.925 14.669c-0.235 0.011-0.457 0.115-0.615 0.289s-0.241 0.404-0.231 0.64c0.011 0.235 0.115 0.457 0.289 0.615s0.404 0.241 0.64 0.23h15.081c0.237 0.003 0.466-0.089 0.636-0.256s0.264-0.394 0.264-0.632c0-0.237-0.095-0.465-0.264-0.632s-0.398-0.259-0.636-0.256h-15.081c-0.028-0.001-0.056-0.001-0.083 0v0zM3.925 17.774c-0.235 0.011-0.457 0.115-0.615 0.289s-0.241 0.404-0.231 0.64c0.011 0.235 0.115 0.457 0.289 0.615s0.404 0.242 0.64 0.23h6.21c0.237 0.003 0.466-0.089 0.636-0.256s0.264-0.394 0.264-0.632c0-0.238-0.095-0.465-0.264-0.632s-0.398-0.259-0.636-0.256h-6.21c-0.028-0.001-0.056-0.001-0.083 0v0zM15.54 20.436c1.48 0 2.662 1.181 2.662 2.662s-1.181 2.661-2.662 2.661c-1.48 0-2.661-1.181-2.661-2.661s1.181-2.662 2.661-2.662zM13.766 27.158c0.545 0.241 1.143 0.374 1.774 0.374s1.229-0.134 1.774-0.374v2.259l-1.275-0.845c-0.301-0.205-0.697-0.205-0.998 0l-1.275 0.845 0-2.259z"></path>
</symbol>
<symbol id="document" viewBox="0 0 32 32">
<path d="M9.726 16.784c0-0.208 0.083-0.408 0.23-0.555s0.347-0.23 0.555-0.23c0.208 0 0.408 0.083 0.555 0.23s0.23 0.347 0.23 0.555c0 0.208-0.083 0.408-0.23 0.555s-0.347 0.23-0.555 0.23c-0.208 0-0.408-0.083-0.555-0.23s-0.23-0.347-0.23-0.555zM10.51 19.137c-0.208 0-0.408 0.083-0.555 0.23s-0.23 0.347-0.23 0.555c0 0.208 0.083 0.408 0.23 0.555s0.347 0.23 0.555 0.23c0.208 0 0.408-0.083 0.555-0.23s0.23-0.347 0.23-0.555c0-0.208-0.083-0.408-0.23-0.555s-0.347-0.23-0.555-0.23zM9.726 23.059c0-0.208 0.083-0.408 0.23-0.555s0.347-0.23 0.555-0.23c0.208 0 0.408 0.083 0.555 0.23s0.23 0.347 0.23 0.555c0 0.208-0.083 0.408-0.23 0.555s-0.347 0.23-0.555 0.23c-0.208 0-0.408-0.083-0.555-0.23s-0.23-0.347-0.23-0.555zM13.647 16c-0.208 0-0.408 0.083-0.555 0.23s-0.23 0.347-0.23 0.555c0 0.208 0.083 0.408 0.23 0.555s0.347 0.23 0.555 0.23h7.843c0.208 0 0.408-0.083 0.555-0.23s0.23-0.347 0.23-0.555c0-0.208-0.083-0.408-0.23-0.555s-0.347-0.23-0.555-0.23h-7.843zM12.863 19.922c0-0.208 0.083-0.408 0.23-0.555s0.347-0.23 0.555-0.23h7.843c0.208 0 0.408 0.083 0.555 0.23s0.23 0.347 0.23 0.555c0 0.208-0.083 0.408-0.23 0.555s-0.347 0.23-0.555 0.23h-7.843c-0.208 0-0.408-0.083-0.555-0.23s-0.23-0.347-0.23-0.555zM13.647 22.274c-0.208 0-0.408 0.083-0.555 0.23s-0.23 0.347-0.23 0.555c0 0.208 0.083 0.408 0.23 0.555s0.347 0.23 0.555 0.23h7.843c0.208 0 0.408-0.083 0.555-0.23s0.23-0.347 0.23-0.555c0-0.208-0.083-0.408-0.23-0.555s-0.347-0.23-0.555-0.23h-7.843zM9.726 3.451c-0.832 0-1.63 0.331-2.218 0.919s-0.919 1.386-0.919 2.218v18.824c0 0.832 0.331 1.63 0.919 2.218s1.386 0.919 2.218 0.919h12.549c0.832 0 1.63-0.331 2.218-0.919s0.919-1.386 0.919-2.218v-13.468c-0.001-0.624-0.249-1.222-0.69-1.663l-6.14-6.141c-0.441-0.441-1.039-0.688-1.663-0.689h-7.194zM8.157 6.588c0-0.416 0.165-0.815 0.459-1.109s0.693-0.459 1.109-0.459h6.274v5.49c0 0.624 0.248 1.223 0.689 1.664s1.040 0.689 1.664 0.689h5.49v12.549c0 0.416-0.165 0.815-0.459 1.109s-0.693 0.459-1.109 0.459h-12.549c-0.416 0-0.815-0.165-1.109-0.459s-0.459-0.693-0.459-1.109v-18.824zM23.518 11.294h-5.165c-0.208 0-0.408-0.083-0.555-0.23s-0.23-0.347-0.23-0.555v-5.165l5.95 5.95z"></path>
</symbol>
<symbol id="meet" viewBox="0 0 32 32">
<path d="M16 2.928c1.438 0 2.614 1.176 2.614 2.614s-1.176 2.614-2.614 2.614c-1.438 0-2.614-1.176-2.614-2.614s1.176-2.614 2.614-2.614zM21.098 10.902c-0.523-0.523-1.438-1.438-3.137-1.438h-3.268c-3.66 0-6.536-2.876-6.536-6.536h-2.614c0 4.183 2.745 7.582 6.536 8.758v17.386h2.614v-7.843h2.614v7.843h2.614v-15.556l5.229 5.098 1.83-1.83-5.882-5.882z"></path>
</symbol>
<symbol id="pay" viewBox="0 0 31 32">
<path d="M18.306 13.669c-0.124-0.001-0.244 0.048-0.333 0.137s-0.14 0.209-0.141 0.335v3.524c0.002 0.127 0.053 0.247 0.142 0.336s0.209 0.137 0.334 0.136h10.452c0.125 0.001 0.245-0.048 0.334-0.136s0.14-0.209 0.142-0.336v-3.524c-0.002-0.127-0.053-0.247-0.142-0.335s-0.209-0.137-0.334-0.136h-10.453zM24.715 2.46c1.446 0.070 2.486 0.36 3.145 0.975 0.651 0.609 0.985 1.49 1.051 2.656v3.341c-0.003 0.285-0.118 0.556-0.318 0.755s-0.47 0.309-0.75 0.306c-0.139 0.002-0.277-0.024-0.406-0.077s-0.246-0.13-0.346-0.229c-0.099-0.098-0.179-0.216-0.233-0.346s-0.084-0.269-0.085-0.41l0.002-3.28c-0.035-0.605-0.177-0.981-0.381-1.173-0.198-0.185-0.8-0.351-1.73-0.398h-20.511c-0.842 0.032-1.39 0.194-1.655 0.425-0.204 0.177-0.358 0.664-0.359 1.507l-0.005 18.751c0.078 0.819 0.256 1.365 0.483 1.638 0.173 0.207 0.707 0.414 1.495 0.516h20.574c0.963 0.019 1.531-0.128 1.722-0.323 0.212-0.218 0.366-0.792 0.366-1.73v-3.258c0-0.585 0.478-1.061 1.070-1.061 0.59 0 1.068 0.476 1.068 1.061v3.258c0 1.434-0.289 2.506-0.965 3.202-0.696 0.717-1.804 1.004-3.283 0.972l-20.679-0.005c-1.407-0.166-2.416-0.558-3.016-1.279-0.544-0.653-0.847-1.585-0.968-2.888v-18.855c0.003-1.396 0.333-2.445 1.089-3.102 0.693-0.605 1.694-0.9 3.023-0.951l20.604 0.002zM28.759 11.547c1.443 0 2.613 1.161 2.613 2.594v3.524c0 1.432-1.17 2.594-2.613 2.594h-10.452c-1.443 0-2.613-1.163-2.613-2.594v-3.524c0-1.432 1.17-2.594 2.613-2.594h10.452zM20.921 14.638c-0.722 0-1.307 0.574-1.307 1.279 0 0.707 0.585 1.279 1.307 1.279s1.307-0.573 1.307-1.279c0-0.707-0.585-1.281-1.307-1.281v0.002z"></path>
</symbol>

<symbol id="email" viewBox="0 0 43 32"><path d="M38.667 0H4C1.795 0 0 1.795 0 4v24c0 2.205 1.795 4 4 4h34.667c2.205 0 4-1.795 4-4V4c0-2.205-1.795-4-4-4zm0 2.667c.181 0 .355.037.512.104L21.334 18.238 3.489 2.771c.151-.065.327-.104.512-.104h34.667zm0 26.666H4A1.333 1.333 0 0 1 2.667 28V5.587l17.792 15.421c.233.203.539.327.875.327s.642-.124.876-.328l-.002.001L40 5.587V28c0 .736-.597 1.333-1.333 1.333z"/></symbol>
<symbol id="tel" viewBox="0 0 20 32"><path  d="M17 0H3C1.346 0 0 1.346 0 3v26c0 1.654 1.346 3 3 3h14c1.654 0 3-1.346 3-3V3c0-1.654-1.346-3-3-3zM3 2h14a1 1 0 0 1 1 1v21H2V3a1 1 0 0 1 1-1zm14 28H3a1 1 0 0 1-1-1v-3h16v3a1 1 0 0 1-1 1z"/><path  d="M4.708 27.478a.889.889 0 0 1 .001 1.319l-.001.001a1.048 1.048 0 0 1-1.417 0l.001.001a.889.889 0 0 1-.001-1.319l.001-.001a1.048 1.048 0 0 1 1.417 0l-.001-.001z"/></symbol>
</defs>
</svg>
