<svg width="74" height="75" viewBox="0 0 74 75" fill="none" xmlns="http://www.w3.org/2000/svg">
<path d="M71.9844 54.4394C70.9174 52.2823 68.1889 51.3944 66.0545 52.5249L52.1068 59.9068H50.2656C51.0842 59.0107 51.5312 57.8575 51.5292 56.6357C51.5245 53.9691 49.3515 51.799 46.6848 51.799H36.2063L30.8835 47.9901C29.6684 47.1209 28.2365 46.6609 26.7421 46.6609H24.7394C24.3027 46.6609 23.9486 47.015 23.9486 47.4517C23.9486 47.8884 24.3027 48.2425 24.7394 48.2425H26.7421C27.904 48.2425 29.018 48.5997 29.9631 49.2759L35.4925 53.2324C35.6267 53.3284 35.7877 53.38 35.9524 53.38H46.6844C48.4807 53.38 49.9446 54.8414 49.9476 56.6376C49.9507 58.4185 48.4656 59.906 46.6844 59.906H45.7914C43.7602 59.906 41.7765 60.7345 40.3492 62.1798C40.0426 62.5535 40.0452 62.9262 40.3559 63.2978C40.6667 63.605 41.1673 63.6019 41.474 63.2911C42.6065 62.1447 44.1798 61.4876 45.7913 61.4876H52.3029C52.432 61.4876 52.5589 61.4562 52.6725 61.3958L66.7933 53.9219C68.1564 53.2003 69.8878 53.7686 70.5661 55.1401C71.2263 56.475 70.7194 58.0797 69.4124 58.7932L44.6991 72.2889C43.2006 73.1071 41.441 73.1917 39.8712 72.5207L18.8883 63.5531C18.7975 63.5144 18.7004 63.4927 18.6018 63.4896L16.549 63.4261L16.5495 44.7253C16.5495 44.2886 16.1954 43.9345 15.7587 43.9345H2.34359C1.9069 43.9345 1.5528 44.2886 1.5528 44.7253V66.5473C1.5528 66.984 1.9069 67.3381 2.34359 67.3381H15.7587C16.1954 67.3381 16.5495 66.984 16.5495 66.5473V65.0085L18.4041 65.0658L39.251 73.9746C41.2398 74.8242 43.5605 74.7127 45.4581 73.6768L70.1714 60.181C72.2264 59.0594 73.0228 56.5368 71.9848 54.439L71.9844 54.4394ZM14.9675 65.7567H3.13396V45.5151H14.9675V65.7567Z" fill="#323440"/>
<path d="M9.05146 63.2096C7.22009 63.2096 5.73032 61.72 5.73032 59.889C5.73032 58.0577 7.21996 56.5684 9.05146 56.5684C10.883 56.5684 12.3726 58.0581 12.3726 59.889C12.3726 61.7199 10.8824 63.2096 9.05146 63.2096ZM9.05146 58.149C8.09239 58.149 7.31193 58.9294 7.31193 59.8885C7.31193 60.8476 8.09239 61.628 9.05146 61.628C10.0105 61.628 10.791 60.8476 10.791 59.8885C10.791 58.9294 10.0105 58.149 9.05146 58.149Z" fill="#323440"/>
<path d="M21.3658 47.4516C21.3658 48.0194 20.9054 48.4793 20.3381 48.4793C19.7703 48.4793 19.3104 48.0194 19.3104 47.4516C19.3104 46.8843 19.7703 46.4239 20.3381 46.4239C20.9054 46.4239 21.3658 46.8844 21.3658 47.4516Z" fill="#323440"/>
<path d="M52.9347 47.9802H48.9178C47.7306 47.9802 46.757 47.0872 46.6032 45.8562C46.5991 45.8236 46.597 45.7906 46.597 45.7581V43.1452C44.6804 42.6755 42.8299 41.893 41.1797 40.8549L39.339 42.6914C38.4873 43.5411 36.9238 43.4002 36.118 42.5959L33.3352 39.724C32.501 38.8614 32.6296 37.3237 33.44 36.5149L35.2884 34.6706C34.2147 32.901 33.4528 31.0258 33.0579 29.1815H30.4606C29.2733 29.1815 28.2998 28.2885 28.1454 27.058C28.1413 27.0254 28.1392 26.9924 28.1392 26.9594V22.9517C28.1392 21.7661 29.0338 20.7941 30.2665 20.6403C30.299 20.6362 30.3315 20.6341 30.3645 20.6341H32.9852C33.4559 18.7227 34.2395 16.8768 35.279 15.2312L33.4404 13.3967C32.5887 12.545 32.7291 10.9835 33.5359 10.1778L36.4146 7.40121C37.2772 6.56963 38.8165 6.69817 39.6258 7.50599L41.4758 9.35189C43.25 8.27978 45.1304 7.51894 46.9793 7.12463V4.43949C46.9793 3.25381 47.8738 2.28186 49.1065 2.12805C49.1391 2.12392 49.1716 2.12186 49.2046 2.12186H53.2215C54.4485 2.12186 55.4468 3.16145 55.4468 4.43898V7.05183C57.3634 7.52156 59.2139 8.3041 60.8641 9.34213L62.7048 7.50561C63.5565 6.65598 65.12 6.79741 65.9258 7.60111L68.7086 10.4736C69.5428 11.3362 69.4142 12.8739 68.6033 13.6827L66.7554 15.527C67.8291 17.2965 68.591 19.1718 68.9859 21.0161H71.5833C72.8458 21.0161 73.8369 21.8895 73.9938 23.1402C73.9979 23.1727 74 23.2057 74 23.2382V27.2459C74 28.4315 73.1055 29.4035 71.8728 29.5573C71.8402 29.5614 71.8077 29.5635 71.7747 29.5635H69.154C68.6833 31.4749 67.8997 33.3208 66.8602 34.9664L68.6988 36.8009C68.7298 36.8319 68.7582 36.8649 68.7835 36.9006C69.5061 37.9102 69.4323 39.193 68.6033 40.0198L65.7246 42.7964C65.6962 42.8232 65.6663 42.8485 65.6348 42.8712C64.6246 43.5913 63.3409 43.5175 62.5134 42.6916L60.6634 40.8457C58.8893 41.9178 57.0094 42.6786 55.1599 43.073V45.6632C55.1599 46.8489 54.2654 47.8208 53.0327 47.9747C53.0002 47.9783 52.9677 47.9803 52.9346 47.9803L52.9347 47.9802ZM48.1786 45.7008C48.2266 45.9779 48.4274 46.3986 48.9178 46.3986H52.8775C53.1557 46.3506 53.5784 46.1509 53.5784 45.6625V42.4183C53.5784 42.0317 53.8582 41.7018 54.2391 41.6384C56.2755 41.2998 58.3872 40.4491 60.3461 39.1788C60.6589 38.9759 61.0708 39.0193 61.3346 39.2825L63.6301 41.5728C63.9532 41.8949 64.3842 41.8005 64.6743 41.6131L67.4958 38.8918C67.8066 38.5815 67.7147 38.1572 67.5294 37.8687L65.2865 35.631C65.0165 35.3615 64.9773 34.9383 65.1931 34.6239C66.4164 32.84 67.3001 30.7609 67.7487 28.6114C67.8251 28.2449 68.1482 27.9822 68.5225 27.9822H71.7172C71.9954 27.9342 72.4181 27.7344 72.4181 27.2461V23.2953C72.3825 23.0878 72.2297 22.5975 71.583 22.5975H68.3316C67.945 22.5975 67.6151 22.3182 67.5516 21.9367C67.2125 19.9056 66.3603 17.7991 65.0869 15.8447C64.883 15.5314 64.9259 15.1179 65.1912 14.8536L67.4861 12.5633C67.8077 12.2423 67.7137 11.8143 67.5264 11.5263L64.7993 8.71101C64.487 8.39975 64.0596 8.49163 63.7695 8.67746L61.5267 10.9152C61.2578 11.1836 60.836 11.2223 60.5222 11.0086C58.7336 9.78782 56.6498 8.90568 54.4953 8.45758C54.1283 8.38119 53.8656 8.05806 53.8656 7.6833V4.43907C53.8656 3.99877 53.5326 3.703 53.2219 3.703H49.2622C48.984 3.751 48.5612 3.95076 48.5612 4.43907V7.77924C48.5612 8.16586 48.2815 8.4957 47.9005 8.55919C45.8647 8.8978 43.7524 9.74847 41.7936 11.0188C41.4808 11.2216 41.0688 11.1783 40.8051 10.915L38.5096 8.62471C38.1865 8.30209 37.7555 8.39655 37.4654 8.58444L34.6439 11.3058C34.3331 11.616 34.425 12.0403 34.6103 12.3289L36.8532 14.5666C37.1232 14.836 37.1624 15.2593 36.9466 15.5736C35.7233 17.3576 34.8396 19.4367 34.391 21.5861C34.3146 21.9526 33.9915 22.2154 33.6172 22.2154H30.4225C30.1443 22.2634 29.7216 22.4631 29.7216 22.9514V26.9018C29.7696 27.179 29.9704 27.5997 30.4613 27.5997H33.7126C34.0992 27.5997 34.4291 27.879 34.4926 28.2604C34.8317 30.2916 35.6839 32.3981 36.9573 34.3525C37.1612 34.6658 37.1183 35.0792 36.853 35.3435L34.5576 37.6338C34.236 37.9544 34.3304 38.3828 34.5178 38.6708L37.2449 41.4856C37.5571 41.7969 37.9845 41.705 38.2746 41.5192L40.5175 39.2815C40.7864 39.0131 41.2082 38.9743 41.522 39.188C43.31 40.4088 45.3944 41.291 47.5489 41.739C47.9159 41.8154 48.1786 42.1386 48.1786 42.5133L48.1791 45.7007L48.1786 45.7008Z" fill="#323440"/>
<path d="M59.7665 34.9073H42.3712C41.0632 34.9073 39.9994 33.8429 39.9994 32.5355V28.1526C39.9994 27.7159 40.3535 27.3618 40.7902 27.3618C41.2269 27.3618 41.581 27.7159 41.581 28.1526V32.535C41.581 32.9711 41.9356 33.3258 42.3718 33.3258H59.7671C60.2032 33.3258 60.5579 32.9711 60.5579 32.535V28.1526C60.5579 27.7159 60.912 27.3618 61.3487 27.3618C61.7853 27.3618 62.1394 27.7159 62.1394 28.1526V32.535C62.1389 33.8435 61.0746 34.9073 59.7666 34.9073H59.7665Z" fill="#323440"/>
<path d="M60.8739 17.8292H56.1297V15.6689C56.1297 14.3609 55.0653 13.2971 53.7578 13.2971H48.3808C47.0728 13.2971 46.009 14.3615 46.009 15.6689V17.8292H41.2648C40.1313 17.8292 39.2088 18.7511 39.2088 19.8852V22.9446C39.2088 23.7385 39.7461 24.4312 40.5153 24.6294L48.1584 26.5945V28.6468C48.1584 29.0835 48.5125 29.4376 48.9492 29.4376H53.1896C53.6263 29.4376 53.9804 29.0835 53.9804 28.6468V26.5945L61.6236 24.6294C62.3927 24.4317 62.93 23.739 62.93 22.9446V19.8852C62.93 18.7517 62.0076 17.8292 60.874 17.8292H60.8739ZM47.5896 15.6689C47.5896 15.2328 47.9442 14.8782 48.3803 14.8782H53.757C54.1931 14.8782 54.5478 15.2328 54.5478 15.6689V17.8292H47.5897L47.5896 15.6689ZM52.3984 27.8561H49.7395V25.1972H52.3984V27.8561ZM61.348 22.9446C61.348 23.0169 61.2989 23.0798 61.2293 23.0979L53.98 24.9618V24.4064C53.98 23.9697 53.6259 23.6156 53.1893 23.6156H48.9488C48.5121 23.6156 48.158 23.9697 48.158 24.4064V24.9618L40.9088 23.0979C40.8391 23.0798 40.7901 23.0169 40.7901 22.9446L40.7895 19.8852C40.7895 19.6235 41.0022 19.4109 41.2639 19.4109H60.8739C61.1356 19.4109 61.3483 19.6235 61.3483 19.8852L61.348 22.9446Z" fill="#323440"/>
<path d="M13.2708 24.8936H10.1215C8.98802 24.8936 8.06554 23.9717 8.06554 22.8376V21.686C7.20301 21.3443 6.39988 20.8849 5.66887 20.3145L4.63031 20.9076C3.65473 21.4645 2.40093 21.1285 1.83523 20.1586L0.271187 17.4781C-0.292481 16.5123 0.0533625 15.213 1.02688 14.6571L2.0355 14.081C1.90646 13.1777 1.90646 12.2568 2.0355 11.3535L1.02688 10.7774C0.0559393 10.2225 -0.294027 8.92435 0.271187 7.95641L1.83523 5.2759C2.40096 4.30599 3.65483 3.96996 4.63031 4.52691L5.66887 5.12001C6.40031 4.54963 7.20291 4.09022 8.06554 3.7485V2.5969C8.06606 1.46285 8.98796 0.540894 10.1215 0.540894H13.2708C14.4043 0.540894 15.3268 1.4628 15.3268 2.5969V3.7485C16.1893 4.09021 16.992 4.54961 17.7235 5.12001L18.762 4.52691C19.7371 3.96996 20.9914 4.30547 21.5571 5.2759L23.1211 7.95641C23.6848 8.92219 23.339 10.2215 22.3649 10.7774L21.3563 11.3535C21.4853 12.2568 21.4853 13.1782 21.3563 14.081L22.3649 14.6571C23.3384 15.2156 23.689 16.5044 23.1211 17.4781L21.5566 20.1586C20.9903 21.1285 19.7366 21.4645 18.7615 20.9076L17.7229 20.3145C16.9915 20.8848 16.1889 21.3442 15.3263 21.686V22.8376C15.3268 23.9711 14.4043 24.8936 13.2708 24.8936ZM5.75159 18.5662C5.93949 18.5662 6.1253 18.6328 6.27293 18.7623C7.10295 19.4902 8.0558 20.0347 9.10475 20.3811C9.42891 20.4879 9.64778 20.7909 9.64778 21.1316V22.837C9.64778 23.0988 9.86045 23.3114 10.1221 23.3114H13.2714C13.5331 23.3114 13.7457 23.0987 13.7457 22.837V21.1316C13.7457 20.7904 13.9646 20.4879 14.2888 20.3811C15.3376 20.0347 16.2905 19.4902 17.1206 18.7623C17.374 18.5399 17.741 18.5027 18.0342 18.6699L19.5477 19.5345C19.7727 19.6631 20.0623 19.5856 20.1924 19.3616L21.7569 16.6811C21.8798 16.4158 21.8215 16.1985 21.5825 16.0302L20.0928 15.179C19.796 15.0097 19.6417 14.6685 19.7103 14.3335C19.9287 13.2707 19.9287 12.1635 19.7103 11.1006C19.6417 10.7656 19.796 10.4244 20.0928 10.2551L21.5825 9.40396C21.8215 9.23518 21.8798 9.01837 21.7569 8.75306L20.1924 6.07254C20.0618 5.84904 19.7727 5.7711 19.5471 5.89962L18.0337 6.76371C17.7405 6.93095 17.374 6.89379 17.1201 6.67132C16.29 5.9435 15.3372 5.39893 14.2882 5.05257C13.9641 4.94572 13.7452 4.64272 13.7452 4.30204V2.59713C13.7452 2.33543 13.5325 2.12277 13.2709 2.12277H10.1216C9.85992 2.12277 9.64726 2.33544 9.64726 2.59713V4.30257C9.64726 4.64376 9.42841 4.94625 9.10424 5.0531C8.05535 5.39946 7.10254 5.94403 6.27242 6.67185C6.01897 6.89432 5.65145 6.93148 5.35877 6.76424L3.84534 5.89963C3.62029 5.7711 3.33071 5.84905 3.20011 6.07255L1.63607 8.75307C1.51322 9.01838 1.57155 9.23569 1.81054 9.40398L3.30019 10.2552C3.59699 10.4245 3.75133 10.7657 3.68267 11.1007C3.46433 12.1635 3.46433 13.2702 3.68267 14.3335C3.75133 14.6685 3.59699 15.0097 3.30019 15.179L1.81054 16.0302C1.57155 16.199 1.51322 16.4158 1.63607 16.6811L3.20011 19.3616C3.33071 19.5857 3.62029 19.6631 3.84534 19.5346L5.35877 18.6705C5.48162 18.6008 5.61686 18.5662 5.75159 18.5662V18.5662Z" fill="#323440"/>
<path d="M14.5566 18.1437C14.3227 18.1437 14.0879 18.0854 13.8726 17.9672L11.6958 16.7769L9.51903 17.9672C8.51041 18.5185 7.24314 17.6322 7.43211 16.4868L7.86105 13.8848L6.02599 12.025C5.23468 11.2224 5.70183 9.78838 6.82659 9.61857L9.31351 9.24279L10.4094 6.93333C10.908 5.8829 12.4777 5.87258 12.981 6.93333L14.0769 9.24279L16.5638 9.61857C17.6782 9.78684 18.163 11.2151 17.3644 12.025L15.5304 13.8853L15.9593 16.4873C16.0977 17.3277 15.406 18.1438 14.5564 18.1438L14.5566 18.1437ZM7.37024 11.1356L9.26979 13.0614C9.44736 13.2416 9.52839 13.4955 9.48709 13.7453L9.04524 16.4243L11.3165 15.1823C11.5529 15.0528 11.8389 15.0533 12.0753 15.1823L14.3466 16.4243L13.9047 13.7453C13.8634 13.496 13.9444 13.2416 14.122 13.0614L16.0216 11.1356L13.4252 10.7433C13.1651 10.704 12.9416 10.5378 12.829 10.3004L11.6955 7.91202L10.5625 10.2998C10.45 10.5373 10.2264 10.7035 9.9663 10.7427L7.37024 11.1356Z" fill="#323440"/>
<path d="M19.2833 42.4461C14.9231 42.4461 11.3764 38.8994 11.3764 34.5397C11.3764 30.1801 14.9236 26.6334 19.2833 26.6334C23.6429 26.6334 27.1902 30.1801 27.1902 34.5397C27.1902 38.8988 23.6435 42.4461 19.2833 42.4461ZM19.2833 28.2143C15.7954 28.2143 12.9575 31.0518 12.9575 34.5396C12.9575 38.0275 15.795 40.8649 19.2833 40.8649C22.7712 40.8649 25.6091 38.0274 25.6091 34.5396C25.6091 31.0517 22.7711 28.2143 19.2833 28.2143V28.2143Z" fill="#323440"/>
<path d="M18.0675 37.6929C17.8461 37.6929 17.6453 37.6 17.4657 37.4152L15.6436 35.2771C15.3602 34.9447 15.4004 34.4455 15.7323 34.1627C16.0648 33.8793 16.5639 33.919 16.8468 34.2515L18.083 35.7024L21.7319 31.6482C22.024 31.3236 22.5242 31.2973 22.8484 31.5894C23.1731 31.8816 23.1994 32.3812 22.9072 32.7059L18.6544 37.4311C18.5052 37.5978 18.2915 37.6928 18.0675 37.6928L18.0675 37.6929Z" fill="#323440"/>
</svg>
