<svg width="78" height="78" viewBox="0 0 78 78" fill="none" xmlns="http://www.w3.org/2000/svg">
<path d="M9.45979 21.0069L11.5836 26.9966L18.4566 26.9966L12.8963 30.6983L15.0201 36.688L9.45979 32.9862L3.89946 36.688L6.02332 30.6983L0.462995 26.9966L7.33593 26.9966L9.45979 21.0069Z" fill="#323440"/>
<path d="M24.2309 30.7407L26.3547 36.7303L33.2277 36.7303L27.6674 40.4321L29.7912 46.4218L24.2309 42.72L18.6706 46.4218L20.7944 40.4321L15.2341 36.7303L22.107 36.7303L24.2309 30.7407Z" fill="#323440"/>
<path d="M39.0002 40.4745L41.1241 46.4642L47.997 46.4642L42.4367 50.166L44.5606 56.1556L39.0002 52.4538L33.4399 56.1556L35.5638 50.166L30.0034 46.4642L36.8764 46.4642L39.0002 40.4745Z" fill="#323440"/>
<path d="M53.7731 30.7407L55.897 36.7303L62.7699 36.7303L57.2096 40.4321L59.3334 46.4218L53.7731 42.72L48.2128 46.4218L50.3366 40.4321L44.7763 36.7303L51.6492 36.7303L53.7731 30.7407Z" fill="#323440"/>
<path d="M68.5402 21.0069L70.6641 26.9966L77.537 26.9966L71.9767 30.6983L74.1005 36.688L68.5402 32.9862L62.9799 36.688L65.1037 30.6983L59.5434 26.9966L66.4164 26.9966L68.5402 21.0069Z" fill="#323440"/>
</svg>
