<svg width="78" height="77" viewBox="0 0 78 77" fill="none" xmlns="http://www.w3.org/2000/svg">
<path d="M34.5914 1.11492L34.2178 1.46912V5.46542V9.46172L34.5914 9.81592L34.9502 10.1848H38.9984H43.0466L43.4054 9.81592L43.779 9.46172V5.46542V1.46912L43.4054 1.11492L43.0466 0.746094H38.9984H34.9502L34.5914 1.11492ZM41.3891 5.46542V7.82471H38.9992H36.6093V5.46542V3.10614H38.9992H41.3891V5.46542Z" fill="#323440"/>
<path d="M28.3171 5.96748C23.0139 7.70768 18.532 10.4504 14.5579 14.3736C10.5245 18.3552 7.5816 23.0892 5.92332 28.2952C5.71428 28.9735 5.53488 29.608 5.53488 29.7112C5.53488 29.859 7.59642 30.4781 7.70094 30.3603C7.73058 30.331 8.02932 29.4609 8.38812 28.3991C9.56826 24.8895 11.7944 20.9224 14.125 18.1496C15.3652 16.6751 18.0391 14.1533 19.4579 13.0915C22.1621 11.1003 25.7174 9.27155 28.9294 8.23975L30.8716 7.60604L30.5877 6.52958C30.3787 5.77729 30.2141 5.46775 30.0495 5.46775C29.9161 5.48084 29.1392 5.70183 28.3171 5.96748Z" fill="#323440"/>
<path d="M47.5285 6.23237C47.4388 6.65972 47.3195 7.14636 47.275 7.32346C47.2001 7.60374 47.3647 7.69229 49.1127 8.25285C51.2187 8.93122 54.2217 10.3026 56.1343 11.4822C59.8689 13.7684 63.4093 17.1602 65.9194 20.8762C67.204 22.7935 68.8919 26.2447 69.6244 28.4715C70.207 30.241 70.2967 30.4034 70.5806 30.3295C70.76 30.2849 71.253 30.1671 71.6859 30.0785C72.2241 29.9461 72.4628 29.8275 72.4628 29.6658C72.4628 29.1199 71.1781 25.758 70.2819 23.9147C68.4739 20.1986 66.4123 17.3227 63.4249 14.3728C60.5264 11.4969 57.6584 9.47638 53.9089 7.67766C52.0564 6.7783 48.5012 5.46545 47.9333 5.46545C47.7828 5.46545 47.6486 5.74573 47.5285 6.23237Z" fill="#323440"/>
<path d="M37.8035 16.0837V17.2634H38.9984H40.1934V16.0837V14.9041H38.9984H37.8035V16.0837Z" fill="#323440"/>
<path d="M19.8767 20.8031V21.9827H21.0717H22.2667V20.8031V19.6234H21.0717H19.8767V20.8031Z" fill="#323440"/>
<path d="M37.8035 20.8031V21.9827H38.9984H40.1934V20.8031V19.6234H38.9984H37.8035V20.8031Z" fill="#323440"/>
<path d="M55.7302 20.8031V21.9827H56.9252H58.1201V20.8031V19.6234H56.9252H55.7302V20.8031Z" fill="#323440"/>
<path d="M37.0562 25.6841C35.8761 25.8758 34.1882 26.7313 33.5603 27.4682C31.409 29.946 31.2601 35.1512 33.2319 38.396C33.6055 38.9858 33.6952 39.2661 33.5759 39.3547C33.4714 39.4286 31.7686 40.4019 29.7664 41.5222C27.7641 42.6426 26.0614 43.6898 25.9717 43.8522C25.882 44.0293 25.8375 44.8848 25.882 46.0791C25.9264 47.7754 25.9865 48.1142 26.3305 48.8365C26.8086 49.8837 27.69 50.8569 28.4669 51.1957C29.0199 51.4468 29.7071 51.476 38.9992 51.476C48.2914 51.476 48.9785 51.4468 49.5316 51.1957C50.3084 50.8562 51.1898 49.8837 51.668 48.8365C52.0112 48.1142 52.0712 47.7746 52.1165 46.0791C52.1609 44.8848 52.1165 44.0293 52.0268 43.8522C51.9371 43.6898 50.2343 42.6426 48.2321 41.5222C46.2306 40.4011 44.5271 39.4278 44.4226 39.3393C44.2884 39.2361 44.3329 39.0736 44.602 38.6755C45.6479 37.1563 46.2602 34.546 46.1105 32.3046C45.857 28.3814 44.109 26.1992 40.7924 25.6826C39.656 25.4924 38.2216 25.5078 37.0562 25.6841ZM41.8821 28.3829C43.2713 29.0467 43.7791 30.3002 43.7791 33.0284C43.7791 35.3584 43.226 37.0986 42.1208 38.2782C41.1349 39.3408 40.5077 39.6065 38.9984 39.6065C37.4899 39.6065 36.862 39.3408 35.8761 38.279C34.756 37.0839 34.2186 35.3591 34.2186 32.9398C34.2186 28.9728 35.3691 27.8224 39.3128 27.9256C40.8509 27.9702 41.1349 28.0149 41.8821 28.3829ZM36.5485 41.4791C37.4899 41.9219 37.699 41.9657 38.9984 41.9657C40.2831 41.9657 40.507 41.9219 41.4632 41.4791L42.524 40.9925L46.1393 43.0276L49.7546 45.0627V46.2423C49.7546 47.5991 49.5604 48.4253 49.1423 48.838C48.8732 49.1036 48.5449 49.1183 38.9984 49.1183C29.452 49.1183 29.1236 49.1036 28.8545 48.838C28.4365 48.4253 28.2422 47.5991 28.2422 46.2423V45.0627L31.7975 43.0422C33.7397 41.9357 35.3831 41.0217 35.4276 41.0217C35.4877 41.0071 35.9962 41.2281 36.5485 41.4791Z" fill="#323440"/>
<path d="M4.19093 34.017C2.06933 34.784 0.590448 36.8776 0.799488 38.8542C0.964068 40.4319 2.12939 42.0397 3.66833 42.7766C4.77359 43.3071 6.35699 43.2925 7.43261 42.7327C8.55269 42.1575 9.15095 41.5823 9.73283 40.5351C10.1813 39.7097 10.2414 39.4879 10.2414 38.5C10.2266 37.1579 9.83813 36.2439 8.82257 35.2552C7.55195 33.987 5.66981 33.4857 4.19093 34.017ZM6.99971 36.5242C7.65725 37.0108 7.95599 37.7184 7.88111 38.6917C7.79141 40.1663 6.89519 40.9186 5.34143 40.8154C3.84695 40.7268 3.08567 39.8421 3.19019 38.3083C3.25025 37.335 3.57863 36.789 4.35551 36.391C5.02709 36.0375 6.41705 36.1107 6.99971 36.5242Z" fill="#323440"/>
<path d="M68.055 34.1495C67.8163 34.3705 67.6814 34.6654 67.6814 34.9757C67.6814 35.3738 67.92 35.6833 69.2055 36.9669L70.7288 38.5L69.2055 40.0338C67.9208 41.3166 67.6814 41.6262 67.6814 42.025C67.6814 42.3346 67.8155 42.6295 68.0698 42.8805C68.3834 43.19 68.548 43.2347 68.9965 43.1608C69.4301 43.1023 69.8334 42.792 70.9987 41.6416L72.462 40.2109L74.0306 41.7301C75.5547 43.2193 75.614 43.2493 76.1522 43.1754C76.8393 43.0576 77.0788 42.8212 77.1982 42.1428C77.273 41.6115 77.2426 41.553 75.7341 40.0484L74.1952 38.5L75.6444 37.0547C76.8097 35.9043 77.1233 35.5062 77.1833 35.0781C77.2582 34.6353 77.213 34.4736 76.8994 34.1641C76.6451 33.9131 76.3464 33.7806 76.0328 33.7806C75.6296 33.7806 75.316 34.0163 74.0158 35.2852L72.462 36.789L70.9082 35.2845C69.6087 34.0163 69.2952 33.7799 68.8912 33.7799C68.5776 33.7806 68.2788 33.9139 68.055 34.1495Z" fill="#323440"/>
<path d="M15.0961 38.5V39.6796H16.2911H17.486V38.5V37.3203H16.2911H15.0961V38.5V38.5Z" fill="#323440"/>
<path d="M19.8767 38.5V39.6796H21.0717H22.2667V38.5V37.3203H21.0717H19.8767V38.5Z" fill="#323440"/>
<path d="M55.7302 38.5V39.6796H56.9252H58.1201V38.5V37.3203H56.9252H55.7302V38.5Z" fill="#323440"/>
<path d="M60.5108 38.5V39.6796H61.7058H62.9008V38.5V37.3203H61.7058H60.5108V38.5Z" fill="#323440"/>
<path d="M6.62608 46.9353C6.0286 47.0978 5.53564 47.3042 5.53564 47.3781C5.53564 47.9386 6.98488 51.64 7.94116 53.5427C10.4504 58.5123 13.9011 62.6118 18.2785 65.8273C20.4898 67.4497 21.7745 68.2166 24.2244 69.3816C26.2111 70.3256 29.5128 71.5345 30.1251 71.5345C30.4091 71.5345 30.4839 71.3867 30.7078 70.5019C30.8576 69.9268 30.9465 69.4401 30.9168 69.4109C30.8872 69.3962 29.9606 69.0867 28.8701 68.7471C25.3445 67.6268 21.1918 65.3699 18.3978 63.0691C16.8589 61.8009 14.469 59.3377 13.3185 57.8485C11.2569 55.1643 9.40444 51.6547 8.35846 48.4984C8.01526 47.4659 7.73134 46.6112 7.71574 46.6258C7.71652 46.6258 7.20874 46.7736 6.62608 46.9353Z" fill="#323440"/>
<path d="M69.6384 48.4984C68.9512 50.5782 67.562 53.5273 66.367 55.4153C64.0512 59.1021 60.6153 62.5971 56.8511 65.075C54.8792 66.3732 51.4129 68.0095 49.1275 68.7471C48.037 69.0867 47.126 69.3816 47.1104 69.3816C47.0956 69.3962 47.2001 69.8682 47.3499 70.4288C47.5293 71.1218 47.6931 71.476 47.8576 71.5053C48.321 71.5938 51.7865 70.3403 54.0126 69.2638C61.1083 65.8573 66.6962 60.3418 70.1617 53.3217C71.1625 51.3012 72.4471 47.924 72.4627 47.3342C72.4627 47.1571 72.1936 47.0247 71.4916 46.8476C70.969 46.7151 70.4761 46.6119 70.4012 46.6119C70.3255 46.6112 69.9824 47.4666 69.6384 48.4984Z" fill="#323440"/>
<path d="M19.8767 56.1969V57.3765H21.0717H22.2667V56.1969V55.0172H21.0717H19.8767V56.1969Z" fill="#323440"/>
<path d="M37.8035 56.1969V57.3765H38.9984H40.1934V56.1969V55.0172H38.9984H37.8035V56.1969Z" fill="#323440"/>
<path d="M55.7302 56.1969V57.3765H56.9252H58.1201V56.1969V55.0172H56.9252H55.7302V56.1969Z" fill="#323440"/>
<path d="M37.8035 60.9162V62.0959H38.9984H40.1934V60.9162V59.7366H38.9984H37.8035V60.9162Z" fill="#323440"/>
<path d="M38.3861 66.9623C38.2668 67.0362 36.9969 68.8056 35.5929 70.9C33.8153 73.5396 33.0236 74.8378 33.0236 75.1181C33.0236 75.3537 33.1734 75.6787 33.3972 75.885L33.756 76.2538H39H44.2431L44.6019 75.885C44.8258 75.6787 44.9756 75.3545 44.9756 75.1181C44.9756 74.8378 44.1839 73.5404 42.4062 70.9C40.9866 68.8056 39.7176 67.0215 39.5826 66.9476C39.2527 66.7859 38.6997 66.7859 38.3861 66.9623ZM40.3135 72.0504L41.5389 73.8938H38.9992H36.4595L37.6849 72.0504C38.3721 71.0479 38.9547 70.2217 38.9992 70.2217C39.0437 70.2217 39.6263 71.0479 40.3135 72.0504Z" fill="#323440"/>
</svg>
